<svg width="302" height="200" viewBox="0 0 302 200" fill="none" xmlns="http://www.w3.org/2000/svg">
<g clip-path="url(#clip0_1112_21278)">
<path d="M152.985 56.212C150.299 51.7703 147.117 47.0278 142.133 45.5775C136.361 43.8979 130.433 47.2345 125.404 50.527C110.364 60.3739 95.8804 71.0451 82.0195 82.4918L82.0347 82.6642C92.826 81.92 103.617 81.1758 114.408 80.4317C122.205 79.894 130.27 79.2822 137.16 75.5938C139.774 74.1942 142.323 72.3247 145.286 72.1944C148.967 72.0326 152.176 74.6033 154.698 77.2892C169.618 93.1768 173.936 117.473 190.674 131.431C180.12 105.401 167.517 80.2492 152.985 56.212Z" fill="#4A4A4A"/>
<path d="M244.695 190.968C243.045 188.885 242.371 188.397 240.744 186.294C227.492 169.155 215.037 151.438 203.378 133.141C195.458 120.714 187.932 108.049 180.798 95.1456C177.401 89.0111 174.098 82.8283 170.888 76.5975C168.397 71.7662 165.961 66.9061 163.582 62.017C162.901 60.6206 162.24 59.2178 161.582 57.8117C160.031 54.5053 158.51 51.1828 156.876 47.9213C155.014 44.204 152.748 40.3069 149.329 37.8094C147.773 36.6262 145.912 35.9102 143.964 35.7453C141.181 35.5655 138.613 36.7147 136.199 37.9699C118.537 47.1798 102.002 58.7267 87.0456 71.8658C72.0513 85.0343 58.6488 99.9117 47.1114 116.195C46.7584 116.698 45.9237 116.217 46.28 115.71C47.6829 113.726 49.1136 111.763 50.572 109.822C68.707 85.7034 90.9432 64.9623 116.264 48.5473C120.524 45.7866 124.864 43.1553 129.285 40.6536C131.512 39.392 133.75 38.1464 136.026 36.978C138.257 35.832 140.626 34.8015 143.175 34.763C151.849 34.6282 156.34 44.4512 159.425 51.0608C160.394 53.141 161.375 55.2147 162.368 57.2821C166.121 65.1308 170.018 72.9079 174.059 80.6133C176.554 85.3708 179.103 90.1004 181.706 94.8021C189.808 109.444 198.42 123.789 207.541 137.837C219.624 156.446 231.611 172.885 245.376 190.288C245.755 190.769 245.077 191.456 244.695 190.968Z" fill="#4F4F4F"/>
<path d="M86.1886 67.0152C85.6847 66.4534 85.1839 65.8916 84.6767 65.3299C80.6768 60.9063 76.385 56.5341 70.8923 53.9981C68.2734 52.7507 65.4145 52.088 62.5139 52.0559C59.5156 52.0656 56.5848 52.852 53.8145 53.9531C52.5048 54.4764 51.2238 55.0702 49.9624 55.7026C48.5209 56.4281 47.1052 57.2018 45.6961 57.9819C43.0508 59.4457 40.4399 60.9737 37.8634 62.5659C32.7367 65.7343 27.7706 69.1445 22.9651 72.7966C20.4739 74.6906 18.0342 76.6467 15.6459 78.6648C13.4245 80.5395 11.248 82.4645 9.1165 84.4398C8.66068 84.8603 7.98009 84.1798 8.43591 83.7592C8.99768 83.236 9.56588 82.7159 10.1341 82.2023C11.7392 80.7513 13.3699 79.3282 15.0264 77.9328C18.047 75.384 21.1459 72.9336 24.323 70.5816C29.2634 66.9221 34.3739 63.5108 39.6545 60.3477C42.2933 58.7683 44.9684 57.2553 47.6798 55.8086C48.4985 55.372 49.3268 54.9451 50.1646 54.5406C52.0656 53.5817 54.0409 52.7776 56.0712 52.1362C58.9472 51.2058 61.9901 50.9069 64.9922 51.2598C67.8908 51.6814 70.6835 52.6476 73.223 54.1072C78.616 57.1215 82.7987 61.7826 86.8692 66.3314C87.2802 66.7937 86.6027 67.4774 86.1886 67.0152Z" fill="#4F4F4F"/>
<path d="M196.689 112.855L209.612 108.129L216.028 105.782C218.118 105.017 220.203 104.147 222.363 103.6C224.24 103.064 226.233 103.089 228.096 103.673C229.758 104.288 231.279 105.231 232.568 106.445C233.886 107.659 235.112 108.968 236.236 110.362C237.633 112.041 239.01 113.738 240.392 115.428C246.098 122.406 251.766 129.415 257.398 136.453C263.029 143.492 268.622 150.56 274.178 157.658C279.747 164.774 285.278 171.919 290.771 179.094C291.444 179.973 292.116 180.853 292.788 181.732C293.159 182.219 293.996 181.739 293.619 181.246C288.086 173.999 282.514 166.782 276.904 159.594C271.28 152.389 265.617 145.214 259.915 138.07C254.213 130.926 248.473 123.813 242.694 116.731C241.254 114.967 239.812 113.205 238.368 111.444C237.149 109.959 235.944 108.458 234.608 107.076C232.155 104.539 229.09 102.297 225.422 102.236C223.265 102.201 221.177 102.885 219.173 103.61C217.013 104.392 214.857 105.188 212.7 105.977L199.686 110.737L196.433 111.927C195.856 112.138 196.105 113.069 196.689 112.855L196.689 112.855Z" fill="#4F4F4F"/>
<path d="M69.1918 59.5643C62.6246 56.1891 54.2144 56.8501 48.1797 61.0669C59.6905 63.0528 71.0754 65.71 82.2761 69.0248C77.6249 66.2991 73.9866 62.0286 69.1918 59.5643Z" fill="#4A4A4A"/>
<path d="M48.1139 61.0553L46.8496 62.0829C47.2772 61.7233 47.7218 61.386 48.1785 61.0669C48.1569 61.0632 48.1354 61.059 48.1139 61.0553Z" fill="#4A4A4A"/>
<path d="M232.081 112.902C230.808 111.354 229.433 109.733 227.53 109.104L225.754 109.174C239.277 133.069 257.54 153.949 279.424 170.531C263.643 151.321 247.862 132.112 232.081 112.902Z" fill="#4A4A4A"/>
<path d="M121.615 100.128C122.437 103.115 124.289 105.715 126.843 107.467C127.831 108.14 128.999 108.785 129.337 109.931C129.515 110.661 129.405 111.432 129.031 112.084C128.658 112.728 128.203 113.321 127.679 113.85L127.631 114.029C125.18 112.577 122.849 110.74 121.495 108.233C120.141 105.727 119.953 102.442 121.615 100.128" fill="#4A4A4A"/>
<path d="M203.204 171.213C204.027 174.2 205.879 176.8 208.433 178.552C209.421 179.225 210.589 179.87 210.927 181.016C211.104 181.746 210.995 182.517 210.621 183.169C210.247 183.813 209.793 184.406 209.269 184.935L209.221 185.114C206.77 183.662 204.439 181.825 203.085 179.318C201.731 176.812 201.542 173.527 203.205 171.213" fill="#4A4A4A"/>
<path d="M40.3744 166.311C41.1965 169.298 43.0486 171.897 45.6029 173.65C46.5904 174.322 47.7588 174.967 48.0966 176.113C48.2744 176.844 48.1649 177.615 47.7907 178.267C47.4173 178.911 46.9629 179.504 46.4386 180.032L46.3908 180.211C43.9401 178.759 41.6087 176.922 40.255 174.416C38.9012 171.909 38.7123 168.624 40.3744 166.311" fill="#4A4A4A"/>
<path d="M227.751 35.7175C237.614 35.7175 245.61 27.7219 245.61 17.8588C245.61 7.99564 237.614 0 227.751 0C217.888 0 209.893 7.99564 209.893 17.8588C209.893 27.7219 217.888 35.7175 227.751 35.7175Z" fill="#00FFF0"/>
<path d="M259.98 4.15668C251.325 2.98677 241.444 7.66494 239.2 16.1058C238.635 14.605 237.607 13.3228 236.265 12.4444C234.924 11.566 233.337 11.1369 231.736 11.2191C230.134 11.3013 228.6 11.8905 227.355 12.9016C226.11 13.9127 225.219 15.2934 224.811 16.8442L225.801 17.5539C244.349 21.5648 263.549 21.478 282.06 17.2995C276.039 10.9723 268.635 5.32656 259.98 4.15668Z" fill="#767676"/>
<path d="M222.861 27.9684C214.206 26.7985 204.324 31.4766 202.081 39.9175C201.516 38.4167 200.488 37.1345 199.146 36.2561C197.805 35.3777 196.218 34.9486 194.617 35.0308C193.015 35.113 191.481 35.7022 190.236 36.7133C188.991 37.7244 188.1 39.1051 187.691 40.6559L188.682 41.3656C207.23 45.3765 226.43 45.2897 244.94 41.1112C238.92 34.784 231.516 29.1383 222.861 27.9684Z" fill="#767676"/>
<path d="M298.403 32.4708C298.367 32.4709 298.331 32.4654 298.297 32.4544C205.709 3.17368 124.106 7.00265 71.953 15.3709C64.8555 16.5093 57.739 17.8241 50.8013 19.2792C49.0301 19.6502 47.1925 20.0479 45.3397 20.462C43.1271 20.9548 40.9438 21.4623 38.8503 21.9698C37.9461 22.1838 37.0596 22.3996 36.1908 22.6171C34.8748 22.942 33.5394 23.2805 32.1079 23.6526C30.5084 24.065 28.8832 24.4976 27.2765 24.9384C27.2706 24.9404 27.2646 24.9421 27.2585 24.9435L27.2587 24.9438C25.4439 25.4393 23.6387 25.9492 21.8929 26.4584C20.9481 26.7313 20.0357 27.0004 19.1618 27.2661C19.0642 27.2931 18.9777 27.3191 18.89 27.3458L18.7022 27.4029C18.5935 27.4361 18.4861 27.4686 18.3787 27.4993L18.3719 27.5014L18.3721 27.5017L18.0879 27.59C17.749 27.6926 17.4183 27.7928 17.0931 27.8926C8.49816 30.5422 3.77323 32.4271 3.72656 32.4455C3.68387 32.4627 3.63824 32.4712 3.59225 32.4707C3.54627 32.4701 3.50084 32.4606 3.45856 32.4425C3.41628 32.4244 3.37797 32.3982 3.34583 32.3653C3.31369 32.3324 3.28834 32.2935 3.27123 32.2508C3.25412 32.2081 3.24559 32.1625 3.24612 32.1165C3.24664 32.0705 3.25622 32.0251 3.27431 31.9828C3.29239 31.9405 3.31862 31.9022 3.35151 31.8701C3.3844 31.8379 3.42329 31.8126 3.46598 31.7955C3.513 31.777 8.26101 29.8825 16.8872 27.2231C17.2137 27.1229 17.5452 27.0227 17.8851 26.9197L18.1491 26.8377C18.1582 26.8342 18.1672 26.8315 18.1764 26.8288C18.2833 26.7983 18.39 26.7659 18.4984 26.733L18.6865 26.6759C18.7802 26.6475 18.8725 26.6195 18.9671 26.5935C19.835 26.3295 20.7504 26.0597 21.6977 25.7858C23.4441 25.2763 25.251 24.7664 27.0672 24.2702C27.0728 24.2681 27.0787 24.2668 27.0843 24.2651V24.2647C28.6967 23.8226 30.3278 23.3883 31.9325 22.9745C33.3662 22.6021 34.7041 22.2629 36.0224 21.9373C36.8949 21.7202 37.7831 21.5039 38.687 21.2886C40.7829 20.7804 42.9706 20.2723 45.1872 19.7785C47.0429 19.364 48.8835 18.9653 50.6576 18.5939C57.6062 17.1365 64.7338 15.8196 71.842 14.6794C124.07 6.29925 205.79 2.4641 298.508 31.7869C298.588 31.8121 298.656 31.8649 298.7 31.9359C298.744 32.0069 298.761 32.0914 298.749 32.174C298.736 32.2567 298.694 32.332 298.631 32.3864C298.567 32.4409 298.486 32.4708 298.403 32.4708Z" fill="#666666"/>
<path d="M92.494 147.016C92.3727 146.662 92.1686 146.341 91.8987 146.081C91.799 145.989 91.6912 145.906 91.5765 145.833C90.6626 145.223 89.2969 145.087 88.4285 145.833C88.341 145.908 88.2602 145.992 88.1869 146.081C87.9277 146.4 87.6616 146.712 87.3885 147.016C86.9403 147.527 86.4815 148.021 86.0018 148.501C85.8652 148.634 85.7287 148.771 85.5886 148.904C85.5081 148.984 85.4275 149.061 85.347 149.138C85.0388 149.432 84.7237 149.716 84.405 149.996C84.2369 150.147 84.0688 150.294 83.8973 150.437C83.6416 150.651 83.386 150.865 83.1269 151.071C83.1024 151.089 83.0779 151.106 83.0534 151.127C83.0463 151.131 83.0428 151.138 83.0358 151.141C83.0323 151.141 83.0288 151.141 83.0253 151.148C83.0159 151.152 83.0074 151.158 83.0008 151.166C82.9238 151.218 82.8713 151.253 82.8327 151.285C82.8468 151.278 82.8608 151.267 82.8748 151.26C82.8117 151.309 82.7452 151.358 82.6822 151.407C82.0694 151.859 81.4426 152.293 80.8017 152.699C79.2163 153.714 77.551 154.598 75.8223 155.343C75.7067 155.389 75.5877 155.438 75.4686 155.483C70.9425 157.338 66.0327 158.061 61.1641 157.591C60.6668 157.553 60.1696 157.5 59.6724 157.434C59.0981 157.35 58.5273 157.248 57.96 157.133C55.8004 156.702 53.6872 156.064 51.6499 155.228C49.1014 154.061 46.6776 152.639 44.4154 150.984C44.0652 150.735 43.7115 150.486 43.3579 150.245C43.7606 149.257 44.1562 148.27 44.5414 147.275C44.734 146.796 44.9196 146.316 45.1017 145.833C46.5339 142.11 47.8786 138.353 49.1672 134.582C50.4698 130.761 51.6989 126.919 52.8545 123.054C52.9736 122.662 53.0891 122.27 53.2012 121.877C53.807 119.836 54.3883 117.79 54.945 115.739C54.9976 115.539 55.0536 115.343 55.1026 115.144C55.2637 114.555 55.4213 113.967 55.5754 113.379C55.9255 112.052 55.1341 110.465 53.7405 110.147C53.0694 109.975 52.3578 110.07 51.7556 110.412C51.1533 110.754 50.7074 111.317 50.5119 111.981C50.3613 112.549 50.2107 113.113 50.0566 113.68C49.3178 116.422 48.5404 119.154 47.7245 121.877C47.6054 122.27 47.4864 122.662 47.3673 123.054C45.5674 128.986 43.5913 134.858 41.4389 140.671C41.1798 141.375 40.9172 142.076 40.651 142.776C40.5215 143.119 40.3919 143.462 40.2588 143.805C40.0032 144.481 39.7406 145.157 39.478 145.833C39.3274 146.228 39.1733 146.624 39.0192 147.016C38.9177 147.265 38.8196 147.513 38.7216 147.759C37.7232 147.4 36.6888 147.151 35.6366 147.016L35.4685 146.995C34.6527 146.897 33.8277 146.904 33.0138 147.016C31.7955 147.158 30.6234 147.566 29.5802 148.211C28.5371 148.856 27.6483 149.723 26.9768 150.749C25.3065 153.379 25.3275 157.14 27.6702 159.374C30.0828 161.674 33.7351 161.657 36.575 160.218C38.08 159.403 39.349 158.214 40.2588 156.765C40.6074 156.24 40.9277 155.696 41.2183 155.137C41.2918 155.186 41.3654 155.235 41.4389 155.287C41.719 155.483 41.9992 155.683 42.2758 155.879C43.8877 157.047 45.5863 158.09 47.3568 158.999C51.1639 160.892 55.2619 162.131 59.4798 162.665C59.5743 162.676 59.6654 162.69 59.7599 162.7C60.2256 162.76 60.6949 162.805 61.1641 162.844C67.8952 163.351 74.6345 161.974 80.6267 158.866C81.1344 158.603 81.6375 158.328 82.1359 158.04C82.9098 157.591 83.6661 157.115 84.405 156.611C84.8077 156.338 85.1999 156.061 85.5886 155.77C87.2871 154.519 88.8704 153.119 90.3194 151.586C90.8692 151.008 91.3956 150.412 91.8987 149.797C92.3744 149.293 92.6486 148.633 92.6691 147.941C92.6663 147.624 92.607 147.311 92.494 147.016ZM34.509 155.357C34.5826 155.305 34.6561 155.249 34.7261 155.193C34.7051 155.245 34.6036 155.305 34.509 155.357H34.509ZM35.6331 154.226C35.5525 154.317 35.479 154.408 35.3984 154.499C35.1534 154.774 34.8902 155.031 34.6106 155.27C34.572 155.305 34.53 155.34 34.488 155.371C34.4875 155.371 34.4871 155.371 34.4866 155.372C34.4862 155.372 34.4858 155.372 34.4855 155.372C34.4852 155.373 34.4849 155.373 34.4847 155.373C34.4846 155.374 34.4845 155.374 34.4845 155.375C34.4339 155.397 34.3848 155.423 34.3374 155.452C34.1868 155.543 34.0328 155.627 33.8752 155.704C33.5667 155.818 33.2493 155.905 32.9262 155.967C32.678 155.985 32.4289 155.987 32.1804 155.974H32.1734C32.0019 155.936 31.8324 155.889 31.6656 155.834C31.5816 155.791 31.501 155.742 31.4205 155.693C31.389 155.665 31.3609 155.637 31.3435 155.62C31.3092 155.589 31.2776 155.555 31.2489 155.518C31.2489 155.518 31.2489 155.517 31.2487 155.517C31.2485 155.517 31.2483 155.516 31.2479 155.516C31.2476 155.516 31.2472 155.515 31.2468 155.515C31.2463 155.515 31.2459 155.515 31.2454 155.515C31.2069 155.445 31.1649 155.375 31.1264 155.305C31.1244 155.303 31.1231 155.3 31.1229 155.298C31.0949 155.21 31.0703 155.119 31.0493 155.028C31.0417 154.868 31.0429 154.708 31.0528 154.548C31.0998 154.325 31.163 154.105 31.2419 153.89C31.3128 153.738 31.3935 153.591 31.4835 153.449C31.4905 153.435 31.5256 153.379 31.5641 153.316C31.5676 153.312 31.5676 153.312 31.5676 153.309C31.6201 153.249 31.6726 153.186 31.7287 153.13C31.8232 153.025 31.9248 152.934 32.0263 152.84C32.2238 152.71 32.4284 152.592 32.6391 152.486C32.9734 152.367 33.3164 152.275 33.6651 152.209C34.1793 152.168 34.696 152.173 35.2094 152.223C35.6956 152.308 36.1753 152.426 36.6451 152.577C36.3604 153.129 36.0362 153.661 35.6751 154.167C35.6611 154.188 35.6471 154.209 35.6331 154.226ZM31.7392 153.074C31.7083 153.124 31.6719 153.169 31.6306 153.211C31.6584 153.159 31.6951 153.113 31.7392 153.074Z" fill="white"/>
<path d="M81.9676 111.253C81.9361 112.353 81.9046 113.452 81.873 114.552C81.8065 116.992 81.7376 119.434 81.6664 121.877C81.5929 124.626 81.5159 127.374 81.4353 130.12C81.3968 131.539 81.3571 132.957 81.3163 134.375C81.2077 138.195 81.1003 142.015 80.9941 145.833C80.9836 146.228 80.9696 146.62 80.9591 147.016C80.9066 148.911 80.854 150.805 80.8015 152.699C80.742 154.755 80.6836 156.81 80.6264 158.866C80.5844 160.407 80.5412 161.949 80.4969 163.492C80.1817 174.673 79.8666 185.854 79.5514 197.035C79.5381 197.727 79.2571 198.387 78.7675 198.877C78.2778 199.367 77.6175 199.648 76.9251 199.661C76.2303 199.655 75.5656 199.377 75.0742 198.886C74.5829 198.394 74.3044 197.73 74.2988 197.035C74.4739 190.746 74.6513 184.457 74.8311 178.167C74.9887 172.481 75.1486 166.794 75.3108 161.107C75.3633 159.234 75.4159 157.359 75.4684 155.483C75.5489 152.661 75.6283 149.839 75.7065 147.016C75.717 146.62 75.731 146.228 75.7415 145.833C75.7485 145.486 75.759 145.143 75.7695 144.796C75.9236 139.316 76.0777 133.835 76.2318 128.352C76.2948 126.195 76.3555 124.037 76.4139 121.877C76.4839 119.416 76.5539 116.955 76.624 114.496C76.6555 113.414 76.6835 112.335 76.715 111.253C76.7283 110.561 77.0093 109.9 77.499 109.411C77.9886 108.921 78.6489 108.64 79.3413 108.627C80.0361 108.632 80.7009 108.911 81.1922 109.402C81.6835 109.894 81.962 110.558 81.9676 111.253Z" fill="white"/>
<path d="M226.037 111.982C223.283 122.41 219.992 132.688 216.176 142.776C215.123 145.559 214.046 148.336 212.894 151.08L213.159 150.452C212.645 151.759 211.989 153.005 211.202 154.168C211.148 154.243 211.094 154.318 211.038 154.391C211.31 154.043 211.362 153.974 211.193 154.185C211.104 154.29 211.016 154.396 210.924 154.498C210.679 154.773 210.416 155.031 210.137 155.27C210.067 155.33 209.995 155.389 209.923 155.447L210.251 155.191C210.213 155.281 209.946 155.4 209.862 155.451C209.592 155.614 209.311 155.757 209.02 155.878L209.647 155.613C209.171 155.805 208.674 155.942 208.166 156.02L208.864 155.926C208.365 155.995 207.859 156 207.359 155.942L208.057 156.036C207.648 155.98 207.247 155.872 206.865 155.715L207.492 155.98C207.288 155.891 207.092 155.786 206.904 155.666C206.809 155.604 206.517 155.383 206.899 155.674C207.296 155.978 206.95 155.7 206.868 155.62C206.8 155.553 206.739 155.48 206.672 155.411C206.364 155.095 207.021 155.957 206.811 155.586C206.699 155.4 206.597 155.209 206.504 155.013L206.769 155.64C206.648 155.342 206.563 155.03 206.514 154.712L206.608 155.41C206.557 155.014 206.557 154.614 206.606 154.218L206.513 154.916C206.577 154.474 206.694 154.041 206.861 153.627L206.596 154.255C206.713 153.976 206.851 153.707 207.009 153.45C207.082 153.317 207.167 153.191 207.264 153.074C207.281 153.08 206.82 153.604 207.064 153.34C207.129 153.27 207.188 153.197 207.253 153.129C207.357 153.019 207.468 152.918 207.577 152.814C207.943 152.466 207.065 153.153 207.487 152.877C207.793 152.676 208.115 152.5 208.45 152.352L207.823 152.617C208.384 152.387 208.971 152.229 209.572 152.148L208.874 152.241C209.626 152.155 210.386 152.164 211.136 152.268L210.438 152.174C211.388 152.318 212.316 152.58 213.201 152.952L212.574 152.687C214.461 153.497 216.133 154.7 217.801 155.88C219.413 157.047 221.111 158.09 222.881 158.999C226.688 160.892 230.787 162.131 235.005 162.666C241.054 163.407 247.193 162.617 252.858 160.369C258.522 158.12 263.531 154.485 267.426 149.797C267.901 149.293 268.175 148.632 268.195 147.94C268.19 147.244 267.914 146.578 267.426 146.083C266.462 145.198 264.642 144.948 263.712 146.083C262.83 147.159 261.882 148.18 260.873 149.139C260.402 149.585 259.918 150.018 259.422 150.438C259.139 150.677 258.852 150.912 258.561 151.142C258.423 151.251 257.994 151.54 258.653 151.073C258.502 151.18 258.357 151.297 258.208 151.407C256.003 153.033 253.613 154.392 251.088 155.457L251.715 155.192C249.006 156.328 246.161 157.108 243.251 157.511L243.95 157.417C240.956 157.811 237.924 157.807 234.931 157.404L235.63 157.498C232.638 157.087 229.712 156.29 226.925 155.127L227.553 155.392C224.863 154.202 222.311 152.723 219.941 150.983C218.708 150.069 217.407 149.251 216.05 148.533C214.469 147.726 212.757 147.206 210.994 146.997C207.689 146.608 204.321 147.895 202.504 150.751C200.831 153.379 200.853 157.139 203.195 159.374C205.607 161.675 209.259 161.656 212.102 160.216C214.839 158.83 216.483 155.949 217.64 153.233C220.242 147.121 222.546 140.867 224.692 134.582C226.816 128.364 228.741 122.082 230.469 115.738C230.683 114.952 230.894 114.166 231.102 113.378C231.453 112.052 230.661 110.465 229.268 110.148C228.597 109.975 227.884 110.07 227.282 110.412C226.679 110.754 226.233 111.317 226.037 111.982L226.037 111.982Z" fill="white"/>
<path d="M252.242 111.253L251.296 144.797L250.356 178.166L249.824 197.035C249.83 197.73 250.109 198.394 250.6 198.885C251.091 199.377 251.756 199.655 252.451 199.661C253.143 199.648 253.803 199.367 254.293 198.877C254.782 198.388 255.063 197.727 255.077 197.035L256.022 163.491L256.962 130.122L257.494 111.253C257.488 110.558 257.21 109.894 256.718 109.402C256.227 108.911 255.563 108.633 254.868 108.627C254.176 108.64 253.515 108.921 253.026 109.411C252.536 109.9 252.255 110.561 252.242 111.253Z" fill="white"/>
<path opacity="0.2" d="M161.339 187.669H162.154V150.537H181.179V149.723H162.154V134.055H176.846C176.631 133.781 176.409 133.511 176.181 133.244H162.154V122.895C161.885 122.78 161.613 122.669 161.339 122.565V133.244H145.353V119.984C145.079 119.997 144.809 120.016 144.537 120.039V133.244H131.784V123.351C131.51 123.472 131.24 123.6 130.973 123.734V133.244H120.252V134.055H130.973V149.723H120.252V150.537H130.973V187.669H131.784V150.537C133.459 150.536 135.118 150.866 136.665 151.507C138.212 152.148 139.618 153.087 140.803 154.271C141.987 155.456 142.926 156.862 143.567 158.409C144.208 159.957 144.538 161.615 144.537 163.29V187.669H145.353V150.537H161.339V187.669ZM131.784 149.723V134.055H144.537V149.723H131.784ZM145.353 149.723V134.055H145.673C147.73 134.055 149.768 134.46 151.668 135.248C153.569 136.035 155.296 137.19 156.751 138.645C158.206 140.099 159.36 141.827 160.147 143.728C160.934 145.628 161.339 147.666 161.339 149.723H145.353Z" fill="white"/>
<path d="M156.359 176.536C155.332 181.115 152.873 185.249 149.338 188.336C149.079 188.561 148.82 188.778 148.55 188.991C147.895 189.051 147.245 189.112 146.6 189.173C146.064 189.222 145.535 189.275 145.01 189.324L144.915 189.334L144.849 188.76L144.583 186.435C143.55 184.75 142.91 182.853 142.71 180.887C142.51 178.921 142.755 176.934 143.427 175.075C144.351 172.582 146.025 170.38 147.671 168.195C149.944 165.176 152.153 162.193 152.234 158.512C153.352 159.943 154.282 161.512 155 163.18C154.322 163.499 153.713 163.948 153.207 164.5C153.064 164.658 152.92 164.878 153.018 165.068C153.102 165.229 153.312 165.267 153.494 165.288C153.932 165.334 154.373 165.379 154.811 165.425C155.161 165.463 155.511 165.498 155.862 165.537C156.285 166.927 156.573 168.356 156.72 169.802C156.956 172.051 156.834 174.324 156.359 176.536Z" fill="white"/>
<path d="M167.983 167.358C165.917 168.86 164.709 171.021 163.771 173.402C162.809 173.71 161.944 174.262 161.26 175.005C161.116 175.163 160.973 175.384 161.071 175.573C161.155 175.734 161.365 175.772 161.547 175.793C161.985 175.839 162.426 175.884 162.864 175.93C161.925 178.745 161.064 181.659 159.404 184.036C158.3 185.606 156.861 186.911 155.191 187.857C154.736 188.116 154.266 188.349 153.784 188.554C152.005 188.69 150.26 188.836 148.549 188.991C147.894 189.051 147.244 189.112 146.598 189.173C146.062 189.222 145.534 189.275 145.008 189.324C145.005 189.131 145.005 188.939 145.008 188.746C145.119 183.616 147.007 178.683 150.349 174.788C150.506 174.606 150.667 174.428 150.832 174.249C152.525 172.441 154.516 170.936 156.718 169.802C160.188 167.998 164.078 167.154 167.983 167.358Z" fill="#00FFF0"/>
<path d="M147.204 187.377L146.801 188.568L146.598 189.173C146.062 189.222 145.533 189.275 145.008 189.324L144.914 189.335C144.332 189.394 143.755 189.454 143.177 189.513C143.026 189.338 142.876 189.159 142.729 188.977C139.073 184.551 137.319 178.858 137.849 173.143C138.378 167.427 141.148 162.153 145.554 158.474C145.092 160.894 145.631 163.212 146.517 165.512C146.423 165.551 146.332 165.589 146.244 165.631C145.566 165.95 144.957 166.399 144.451 166.951C144.308 167.109 144.164 167.33 144.262 167.519C144.346 167.68 144.556 167.718 144.739 167.739C145.176 167.785 145.617 167.83 146.055 167.876C146.405 167.914 146.756 167.949 147.106 167.988C147.27 168.005 147.435 168.023 147.599 168.041C147.624 168.093 147.645 168.142 147.67 168.195C148.668 170.359 149.743 172.533 150.348 174.788C150.5 175.354 150.619 175.928 150.706 176.508C150.975 178.466 150.8 180.46 150.194 182.342C149.588 184.223 148.566 185.944 147.204 187.377Z" fill="#00FFF0"/>
<path d="M182.453 136.588C179.438 130.708 174.768 125.761 169.275 122.125C163.765 118.494 157.441 116.283 150.869 115.689C150.008 115.611 149.144 115.565 148.278 115.551C147.255 115.536 131.867 119.975 126.712 123.599C121.56 127.179 117.322 131.92 114.339 137.44C111.362 142.99 109.898 149.226 110.093 155.521C110.349 161.854 112.114 168.034 115.242 173.546C118.327 179.041 122.708 183.698 128.004 187.114C133.375 190.541 138.77 199.627 145.111 199.948C151.5 200.271 158.787 191.7 164.614 189.097C170.441 186.473 175.479 182.368 179.225 177.19C182.865 172.116 185.22 166.234 186.088 160.05C186.989 153.717 186.569 147.187 184.407 141.135C183.852 139.58 183.199 138.061 182.453 136.588C181.83 135.361 180.003 134.909 178.86 135.646C178.27 136.009 177.844 136.585 177.668 137.254C177.493 137.923 177.582 138.634 177.917 139.239C178.283 139.96 178.624 140.693 178.938 141.438L178.674 140.81C179.864 143.673 180.674 146.68 181.081 149.753L180.988 149.055C181.421 152.389 181.414 155.766 180.964 159.099L181.058 158.4C180.604 161.733 179.715 164.991 178.413 168.091L178.678 167.464C178.008 169.046 177.227 170.578 176.341 172.05C175.892 172.794 175.416 173.52 174.913 174.229C174.691 174.54 174.463 174.846 174.234 175.15C173.934 175.548 174.642 174.631 174.332 175.021C174.28 175.088 174.227 175.154 174.174 175.22C174.015 175.419 173.854 175.616 173.69 175.811C172.599 177.114 171.407 178.33 170.127 179.447C169.808 179.726 169.484 179.998 169.154 180.264C168.99 180.396 168.828 180.534 168.657 180.658C168.663 180.653 169.21 180.238 168.886 180.479C168.784 180.554 168.684 180.631 168.582 180.707C167.902 181.21 167.205 181.688 166.49 182.14C164.843 183.177 163.115 184.081 161.323 184.841L161.95 184.576C158.859 185.877 155.61 186.766 152.286 187.22L152.984 187.127C149.663 187.575 146.297 187.581 142.973 187.144L143.672 187.238C140.651 186.833 137.697 186.034 134.884 184.862L135.511 185.127C133.882 184.439 132.311 183.62 130.813 182.679C130.072 182.212 129.351 181.716 128.648 181.192C128.548 181.117 128.448 181.041 128.349 180.966C128.028 180.724 128.579 181.144 128.583 181.147C128.397 181.013 128.218 180.87 128.046 180.718C127.706 180.442 127.372 180.159 127.044 179.87C125.729 178.712 124.501 177.458 123.369 176.12C123.086 175.785 122.809 175.446 122.538 175.101C122.421 174.951 122.207 174.649 122.68 175.286C122.617 175.202 122.553 175.12 122.49 175.037C122.339 174.836 122.19 174.635 122.043 174.431C121.529 173.72 121.04 172.991 120.577 172.244C119.53 170.555 118.616 168.786 117.844 166.954L118.108 167.581C116.845 164.574 115.98 161.415 115.538 158.184L115.632 158.882C115.232 155.903 115.227 152.885 115.615 149.905L115.521 150.603C115.919 147.717 116.695 144.896 117.83 142.213L117.565 142.841C118.28 141.161 119.122 139.539 120.085 137.989C120.567 137.213 121.078 136.456 121.618 135.718C121.741 135.55 121.865 135.383 121.99 135.218C122.103 135.068 122.415 134.695 121.883 135.354C121.935 135.289 121.985 135.223 122.037 135.158C122.333 134.782 122.637 134.413 122.947 134.049C124.123 132.673 125.397 131.383 126.758 130.19C127.102 129.889 127.452 129.593 127.807 129.305C127.968 129.173 128.131 129.043 128.294 128.915C128.359 128.863 128.426 128.813 128.491 128.761C127.791 129.318 128.296 128.913 128.455 128.794C129.187 128.246 129.938 127.725 130.709 127.232C132.422 126.136 134.224 125.186 136.096 124.392L135.469 124.657C138.186 123.516 150.226 120.823 152.415 121.117L151.717 121.023C154.936 121.472 158.081 122.342 161.074 123.608L160.446 123.344C161.963 123.987 163.437 124.728 164.859 125.56C165.569 125.976 166.266 126.415 166.948 126.877C167.271 127.096 167.591 127.32 167.907 127.548C168.065 127.662 168.222 127.778 168.378 127.894C168.465 127.959 168.551 128.025 168.638 128.09C169.002 128.362 168.137 127.695 168.518 127.996C169.795 128.999 171.008 130.082 172.149 131.236C172.709 131.807 173.25 132.396 173.772 133.003C174.04 133.315 174.302 133.631 174.559 133.951C174.687 134.111 175.121 134.687 174.589 133.981C174.719 134.153 174.85 134.325 174.979 134.499C176.085 135.997 177.068 137.582 177.917 139.239C178.545 140.464 180.364 140.921 181.511 140.182C182.1 139.819 182.527 139.243 182.702 138.574C182.878 137.905 182.788 137.193 182.453 136.588Z" fill="white"/>
<path d="M151.85 179.448C151.579 179.46 151.311 179.389 151.081 179.244C150.852 179.098 150.673 178.886 150.568 178.636C150.464 178.386 150.438 178.109 150.496 177.844C150.554 177.579 150.692 177.338 150.891 177.153C150.924 177.021 150.948 176.926 150.982 176.793C150.97 176.764 150.958 176.735 150.946 176.706C149.727 173.801 141.952 181.901 141.615 184.631C141.467 185.838 141.53 187.062 141.8 188.248C139.281 182.754 137.973 176.782 137.965 170.738C137.964 169.222 138.049 167.706 138.217 166.199C138.357 164.963 138.55 163.736 138.798 162.518C140.147 155.909 143.046 149.715 147.255 144.444C149.662 144.578 151.771 144.211 151.975 139.546C152.011 138.717 152.627 137.998 152.762 137.181C152.532 137.211 152.299 137.23 152.069 137.245C151.998 137.248 151.922 137.252 151.851 137.256L151.824 137.257C151.571 137.269 151.321 137.207 151.102 137.079C150.884 136.951 150.708 136.763 150.594 136.537C150.48 136.312 150.434 136.058 150.461 135.807C150.488 135.555 150.587 135.317 150.747 135.121C150.846 134.999 150.945 134.877 151.044 134.755C151.195 134.566 151.35 134.382 151.5 134.193C151.518 134.175 151.534 134.157 151.549 134.137C151.723 133.922 151.896 133.711 152.069 133.496C151.753 133.005 151.327 132.594 150.826 132.295C149.089 131.278 146.693 131.982 145.439 133.553C144.181 135.124 143.943 137.328 144.38 139.29C144.81 140.96 145.521 142.545 146.482 143.977C146.388 144.097 146.29 144.214 146.196 144.334C144.475 146.548 142.974 148.925 141.716 151.432C142.072 148.652 137.72 138.613 136.037 136.486C134.016 133.932 129.87 135.047 129.514 138.285C129.511 138.316 129.507 138.347 129.504 138.379C129.754 138.52 129.999 138.669 130.238 138.828C130.539 139.029 130.772 139.316 130.907 139.651C131.042 139.987 131.072 140.356 130.994 140.709C130.915 141.062 130.732 141.383 130.468 141.631C130.204 141.878 129.872 142.04 129.514 142.095L129.478 142.1C126.132 146.878 136.858 159.313 139.543 156.521C138.28 160.103 137.487 163.833 137.185 167.619C137.014 169.853 137.024 172.096 137.215 174.328L137.204 174.249C136.607 169.388 126.373 162.16 123.384 162.762C121.662 163.109 119.967 163.03 120.228 164.767C120.232 164.795 120.236 164.822 120.241 164.85C120.705 165.039 121.156 165.257 121.593 165.502C121.843 165.643 122.088 165.793 122.327 165.951C122.628 166.152 122.861 166.439 122.996 166.775C123.131 167.11 123.161 167.479 123.083 167.832C123.004 168.185 122.821 168.507 122.557 168.754C122.293 169.001 121.961 169.163 121.603 169.218L121.567 169.224C121.54 169.228 121.518 169.231 121.491 169.235C119.968 174.476 131.264 182.934 138.131 180.243H138.135C138.815 183.2 139.801 186.078 141.077 188.832H151.587C151.625 188.715 151.658 188.594 151.692 188.478C150.72 188.539 149.743 188.481 148.784 188.304C149.564 187.347 150.344 186.383 151.124 185.426C151.141 185.408 151.157 185.389 151.173 185.37C151.568 184.88 151.967 184.394 152.363 183.904L152.363 183.904C152.384 182.403 152.212 180.905 151.851 179.448L151.85 179.448ZM139.815 155.771L139.82 155.764L139.815 155.779V155.771ZM137.487 176.758L137.396 176.555C137.4 176.408 137.4 176.261 137.396 176.11C137.396 176.069 137.389 176.027 137.389 175.986C137.423 176.246 137.453 176.506 137.49 176.766L137.487 176.758Z" fill="white"/>
<path d="M33.7562 157.577C35.8835 157.577 37.6081 155.853 37.6081 153.725C37.6081 151.598 35.8835 149.874 33.7562 149.874C31.6288 149.874 29.9043 151.598 29.9043 153.725C29.9043 155.853 31.6288 157.577 33.7562 157.577Z" fill="white"/>
<path d="M79.9788 199.598C82.1062 199.598 83.8307 197.873 83.8307 195.746C83.8307 193.619 82.1062 191.894 79.9788 191.894C77.8515 191.894 76.127 193.619 76.127 195.746C76.127 197.873 77.8515 199.598 79.9788 199.598Z" fill="white"/>
<path d="M255.414 199.598C257.542 199.598 259.266 197.873 259.266 195.746C259.266 193.619 257.542 191.894 255.414 191.894C253.287 191.894 251.562 193.619 251.562 195.746C251.562 197.873 253.287 199.598 255.414 199.598Z" fill="white"/>
<path d="M264.869 150.574C266.997 150.574 268.721 148.849 268.721 146.722C268.721 144.595 266.997 142.87 264.869 142.87C262.742 142.87 261.018 144.595 261.018 146.722C261.018 148.849 262.742 150.574 264.869 150.574Z" fill="white"/>
<path d="M253.664 114.856C255.792 114.856 257.516 113.132 257.516 111.004C257.516 108.877 255.792 107.153 253.664 107.153C251.537 107.153 249.812 108.877 249.812 111.004C249.812 113.132 251.537 114.856 253.664 114.856Z" fill="white"/>
<path d="M92.9357 146.722C92.9333 147.706 92.5529 148.651 91.8729 149.362C91.193 150.074 90.2657 150.496 89.2828 150.543C88.3 150.589 87.3369 150.256 86.5929 149.612C85.8488 148.969 85.3808 148.063 85.2856 147.084C85.1904 146.105 85.4753 145.126 86.0814 144.351C86.6875 143.576 87.5684 143.064 88.5418 142.92C89.5151 142.776 90.5065 143.012 91.3107 143.579C92.1149 144.146 92.6703 145.001 92.8621 145.966C92.9115 146.215 92.9362 146.468 92.9357 146.722Z" fill="white"/>
<path d="M169.973 126.062C172.1 126.062 173.825 124.337 173.825 122.21C173.825 120.083 172.1 118.358 169.973 118.358C167.846 118.358 166.121 120.083 166.121 122.21C166.121 124.337 167.846 126.062 169.973 126.062Z" fill="white"/>
<path d="M131.805 122.21C131.802 123.194 131.422 124.139 130.742 124.85C130.062 125.562 129.135 125.984 128.152 126.031C127.169 126.077 126.206 125.744 125.462 125.1C124.718 124.457 124.25 123.551 124.155 122.572C124.06 121.593 124.344 120.614 124.951 119.839C125.557 119.064 126.438 118.552 127.411 118.408C128.384 118.264 129.376 118.5 130.18 119.067C130.984 119.634 131.539 120.489 131.731 121.454C131.781 121.703 131.805 121.956 131.805 122.21Z" fill="white"/>
<path d="M82.0802 111.004C82.0779 111.988 81.6974 112.934 81.0175 113.645C80.3375 114.356 79.4102 114.779 78.4274 114.825C77.4446 114.872 76.4815 114.539 75.7374 113.895C74.9934 113.251 74.5253 112.346 74.4301 111.366C74.3349 110.387 74.6198 109.409 75.2259 108.634C75.832 107.859 76.7129 107.346 77.6863 107.203C78.6597 107.059 79.651 107.295 80.4552 107.862C81.2594 108.429 81.8149 109.283 82.0067 110.248C82.0561 110.497 82.0807 110.751 82.0802 111.004Z" fill="white"/>
<path d="M210.243 158.978C212.37 158.978 214.094 157.254 214.094 155.126C214.094 152.999 212.37 151.274 210.243 151.274C208.115 151.274 206.391 152.999 206.391 155.126C206.391 157.254 208.115 158.978 210.243 158.978Z" fill="white"/>
<path d="M149.663 123.961C152.758 123.961 155.266 121.452 155.266 118.358C155.266 115.264 152.758 112.755 149.663 112.755C146.569 112.755 144.061 115.264 144.061 118.358C144.061 121.452 146.569 123.961 149.663 123.961Z" fill="white"/>
<path d="M301.179 199.892L0.819284 200C0.764531 200 0.710312 199.989 0.659726 199.968C0.60914 199.947 0.563179 199.917 0.524463 199.878C0.485746 199.839 0.45503 199.793 0.434077 199.743C0.413124 199.692 0.402344 199.638 0.402344 199.583C0.402344 199.528 0.413124 199.474 0.434077 199.423C0.45503 199.373 0.485746 199.327 0.524463 199.288C0.563179 199.249 0.60914 199.219 0.659726 199.198C0.710312 199.177 0.764531 199.166 0.819284 199.166L301.179 199.058C301.29 199.059 301.395 199.103 301.473 199.181C301.551 199.259 301.595 199.365 301.595 199.475C301.595 199.586 301.551 199.692 301.473 199.77C301.395 199.848 301.29 199.892 301.179 199.892Z" fill="#555555"/>
</g>
<defs>
<clipPath id="clip0_1112_21278">
<rect width="301.194" height="200" fill="white" transform="translate(0.402344)"/>
</clipPath>
</defs>
</svg>
