<svg width="15" height="18" viewBox="0 0 15 18" fill="none" xmlns="http://www.w3.org/2000/svg">
<path d="M12.5002 3.99996H10.8335C10.8335 2.15829 9.34183 0.666626 7.50016 0.666626C5.6585 0.666626 4.16683 2.15829 4.16683 3.99996H2.50016C1.5835 3.99996 0.833496 4.74996 0.833496 5.66663V15.6666C0.833496 16.5833 1.5835 17.3333 2.50016 17.3333H12.5002C13.4168 17.3333 14.1668 16.5833 14.1668 15.6666V5.66663C14.1668 4.74996 13.4168 3.99996 12.5002 3.99996ZM7.50016 2.33329C8.41683 2.33329 9.16683 3.08329 9.16683 3.99996H5.8335C5.8335 3.08329 6.5835 2.33329 7.50016 2.33329ZM12.5002 15.6666H2.50016V5.66663H4.16683V7.33329C4.16683 7.79163 4.54183 8.16663 5.00016 8.16663C5.4585 8.16663 5.8335 7.79163 5.8335 7.33329V5.66663H9.16683V7.33329C9.16683 7.79163 9.54183 8.16663 10.0002 8.16663C10.4585 8.16663 10.8335 7.79163 10.8335 7.33329V5.66663H12.5002V15.6666Z" fill="#00FFF0"/>
</svg>
