<svg width="18" height="16" viewBox="0 0 18 16" fill="none" xmlns="http://www.w3.org/2000/svg">
<path d="M15.2597 2.76449C15.1707 1.61589 14.2083 0.708333 13.0373 0.708333H2.60465C1.37513 0.708333 0.374837 1.70863 0.374837 2.93815V13.255C0.374837 14.4845 1.37513 15.4848 2.60465 15.4848H14.657C15.8865 15.4848 16.8868 14.4845 16.8868 13.255V4.91084C16.8868 3.8902 16.1972 3.02816 15.2597 2.76449ZM2.60465 1.75H13.0373C13.6042 1.75 14.0793 2.14912 14.1971 2.68105H2.60465C2.1681 2.68105 1.76077 2.80765 1.4165 3.02536V2.93815C1.4165 2.28301 1.94951 1.75 2.60465 1.75ZM14.6569 14.4432H2.60465C1.94951 14.4432 1.4165 13.9102 1.4165 13.255V4.91084C1.4165 4.2557 1.94951 3.72269 2.60465 3.72269H14.657C15.3121 3.72269 15.8451 4.2557 15.8451 4.91084V6.72848H12.524C11.2079 6.72848 10.1372 7.79922 10.1372 9.1153C10.1372 10.4314 11.2079 11.5021 12.524 11.5021H15.8451V13.255C15.8451 13.9102 15.3121 14.4432 14.6569 14.4432ZM15.8451 10.4604H12.524C11.7823 10.4604 11.1788 9.85703 11.1788 9.1153C11.1788 8.37357 11.7823 7.77015 12.524 7.77015H15.8451V10.4604Z" fill="#202121"/>
<path fill-rule="evenodd" clip-rule="evenodd" d="M0.166504 2.93815C0.166504 1.59357 1.26007 0.5 2.60465 0.5H13.0373C14.2696 0.5 15.2899 1.41846 15.4522 2.60659C16.4069 2.93694 17.0951 3.84419 17.0951 4.91083V13.255C17.0951 14.5996 16.0016 15.6932 14.657 15.6932H2.60465C1.26007 15.6932 0.166504 14.5996 0.166504 13.255V2.93815ZM2.60465 0.916667C1.49019 0.916667 0.583171 1.82369 0.583171 2.93815V13.255C0.583171 14.3695 1.49019 15.2765 2.60465 15.2765H14.657C15.7714 15.2765 16.6785 14.3695 16.6785 13.255V4.91085C16.6784 3.98628 16.0536 3.20419 15.2033 2.96504L15.0632 2.92565L15.052 2.78058C14.9713 1.73944 14.0985 0.916667 13.0373 0.916667H2.60465ZM1.66456 2.66173C1.95397 2.54016 2.2716 2.47272 2.60465 2.47272H13.899C13.733 2.16656 13.4088 1.95833 13.0373 1.95833H2.60465C2.16051 1.95833 1.78423 2.25572 1.66456 2.66173ZM1.20817 2.93815C1.20817 2.16795 1.83445 1.54167 2.60465 1.54167H13.0373C13.7042 1.54167 14.262 2.01099 14.4005 2.63598L14.4567 2.88939H2.60465C2.20897 2.88939 1.84005 3.00401 1.52785 3.20144L1.20817 3.4036V2.93815ZM2.60465 3.93102C2.06457 3.93102 1.62484 4.37076 1.62484 4.91084V13.255C1.62484 13.7951 2.06457 14.2348 2.60465 14.2348H14.6569C15.197 14.2348 15.6368 13.7951 15.6368 13.255V11.7104H12.524C11.0928 11.7104 9.92884 10.5464 9.92884 9.1153C9.92884 7.68416 11.0928 6.52015 12.524 6.52015H15.6368V4.91084C15.6368 4.37076 15.1971 3.93102 14.657 3.93102H2.60465ZM1.20817 4.91084C1.20817 4.14064 1.83445 3.51436 2.60465 3.51436H14.657C15.4272 3.51436 16.0535 4.14064 16.0535 4.91084V6.93682H12.524C11.3229 6.93682 10.3455 7.91427 10.3455 9.1153C10.3455 10.3163 11.323 11.2938 12.524 11.2938H16.0534V13.255C16.0534 14.0252 15.4271 14.6515 14.6569 14.6515H2.60465C1.83445 14.6515 1.20817 14.0252 1.20817 13.255V4.91084ZM12.524 7.97848C11.8973 7.97848 11.3872 8.48862 11.3872 9.1153C11.3872 9.74197 11.8973 10.2521 12.524 10.2521H15.6368V7.97848H12.524ZM10.9705 9.1153C10.9705 8.25851 11.6672 7.56182 12.524 7.56182H16.0534V10.6688H12.524C11.6672 10.6688 10.9705 9.97209 10.9705 9.1153Z" fill="#202121"/>
<path d="M12.7173 9.69707C13.0168 9.69707 13.2596 9.45429 13.2596 9.15482C13.2596 8.85534 13.0168 8.61256 12.7173 8.61256C12.4178 8.61256 12.1751 8.85534 12.1751 9.15482C12.1751 9.45429 12.4178 9.69707 12.7173 9.69707Z" fill="#202121"/>
<path fill-rule="evenodd" clip-rule="evenodd" d="M12.7173 8.8209C12.5329 8.8209 12.3834 8.9704 12.3834 9.15482C12.3834 9.33924 12.5329 9.48874 12.7173 9.48874C12.9017 9.48874 13.0512 9.33924 13.0512 9.15482C13.0512 8.9704 12.9017 8.8209 12.7173 8.8209ZM11.9667 9.15482C11.9667 8.74028 12.3028 8.40423 12.7173 8.40423C13.1319 8.40423 13.4679 8.74028 13.4679 9.15482C13.4679 9.56935 13.1319 9.9054 12.7173 9.9054C12.3028 9.9054 11.9667 9.56935 11.9667 9.15482Z" fill="#202121"/>
</svg>
