<svg width="30" height="30" viewBox="0 0 30 30" fill="none" xmlns="http://www.w3.org/2000/svg">
<path fill-rule="evenodd" clip-rule="evenodd" d="M6.45317 2.66663C5.77567 2.66663 5.08375 2.94119 4.38135 3.63261L4.37378 3.64006L4.36606 3.64735C3.75971 4.21938 3.33991 4.84469 3.07707 5.51275L3.075 5.51802C2.80537 6.19208 2.6665 6.9318 2.6665 7.71996C2.6665 8.95018 2.95004 10.271 3.54751 11.6904C4.15327 13.1161 4.99295 14.5705 6.04994 16.0403C7.1245 17.516 8.32986 18.9291 9.66702 20.2796C11.0179 21.6171 12.432 22.8233 13.9227 23.9122C15.3879 24.9789 16.8554 25.8194 18.3118 26.44C19.7448 27.0505 21.0646 27.3333 22.2665 27.3333C23.0729 27.3333 23.8084 27.1842 24.4819 26.9035L24.4873 26.9013C25.147 26.6309 25.7471 26.2045 26.3122 25.5818M2.98595 2.19981C3.98854 1.21594 5.16062 0.666626 6.45317 0.666626C6.96408 0.666626 7.48398 0.775135 7.95904 1.00182C8.4499 1.22968 8.89729 1.57853 9.24512 2.07892L12.3335 6.43196C12.6069 6.81204 12.8208 7.18391 12.9756 7.56043C13.1328 7.92942 13.2398 8.34188 13.2398 8.75996C13.2398 9.27578 13.0895 9.7688 12.8226 10.2125C12.5955 10.6104 12.2855 10.9942 11.9274 11.3533L11.009 12.3079C11.0183 12.3299 11.0308 12.3595 11.0443 12.3939C11.2438 12.7438 11.5972 13.2363 12.133 13.8698C12.7199 14.5478 13.3422 15.2348 14.0137 15.9196C14.7229 16.6155 15.3947 17.2477 16.0729 17.8237C16.7142 18.3663 17.214 18.7121 17.5772 18.9095C17.6064 18.9222 17.6335 18.9344 17.6556 18.9445L18.5752 18.0371C18.9398 17.6728 19.3308 17.3518 19.7481 17.1288C20.1841 16.8691 20.6595 16.72 21.1865 16.72C21.5864 16.72 21.9815 16.8053 22.3785 16.9677C22.7558 17.1221 23.125 17.3344 23.4955 17.5864L23.5038 17.592L27.921 20.7281C28.3938 21.0566 28.7643 21.4726 28.9952 21.9972L29.002 22.0128L29.0083 22.0286C29.1782 22.4533 29.2932 22.9134 29.2932 23.44C29.2932 24.0699 29.1528 24.7089 28.8641 25.3203C28.5977 25.8843 28.2507 26.4211 27.7942 26.9248C27.0535 27.7411 26.2141 28.3546 25.2485 28.7508C24.3228 29.1361 23.3258 29.3333 22.2665 29.3333C20.7484 29.3333 19.1616 28.976 17.5279 28.2799C15.9179 27.5939 14.3191 26.6748 12.7446 25.5284L12.7433 25.5275C11.1688 24.3774 9.6775 23.1048 8.25615 21.6971L8.24929 21.6903C6.8418 20.2692 5.56886 18.7775 4.43141 17.2152L4.42802 17.2106C3.2995 15.6416 2.37997 14.0573 1.7061 12.4709L1.70486 12.468C1.02276 10.848 0.666504 9.26264 0.666504 7.71996C0.666504 6.69574 0.847309 5.70305 1.21698 4.77785C1.59299 3.82333 2.18361 2.95868 2.98595 2.19981ZM6.45317 2.66663C6.68647 2.66663 6.91069 2.71707 7.10044 2.80815L6.45317 2.66663ZM7.60431 3.2225C7.47426 3.03464 7.31222 2.90602 7.11411 2.81459L7.10044 2.80815M7.60431 3.2225L10.7043 7.59193L7.60431 3.2225ZM11.1276 8.32526C11.0431 8.11868 10.9121 7.88061 10.7083 7.5976L10.7043 7.59193M11.2398 8.75996C11.2398 8.6743 11.215 8.52959 11.134 8.34055L11.1276 8.32526M11.2398 8.75996C11.2398 8.87867 11.2067 9.02066 11.1056 9.18668L11.2398 8.75996ZM11.1056 9.18668L11.0972 9.20049L11.1056 9.18668ZM11.0972 9.20049L11.0893 9.21457L11.0972 9.20049ZM11.0893 9.21457C10.9718 9.42243 10.7808 9.6715 10.5061 9.94619L11.0893 9.21457ZM10.5061 9.94619L10.4992 9.95303L10.5061 9.94619ZM10.4992 9.95303L10.4925 9.96L10.4992 9.95303ZM10.4925 9.96L9.48462 11.0077L10.4925 9.96ZM9.48462 11.0077C9.14063 11.3559 8.9865 11.7877 8.9865 12.24C8.9865 12.4414 9.01328 12.6168 9.05636 12.7892L9.07018 12.8444L9.09018 12.8977C9.11631 12.9674 9.14256 13.0293 9.15918 13.0685C9.16084 13.0724 9.16241 13.0761 9.16387 13.0796C9.1812 13.1205 9.1846 13.1299 9.18462 13.1299L9.21264 13.214L9.25528 13.2921C9.54253 13.8188 10.0054 14.4517 10.6098 15.1659L10.617 15.1743C11.2272 15.8794 11.8815 16.6021 12.5927 17.327L12.5993 17.3337L12.606 17.3403C13.3341 18.0549 14.0466 18.7268 14.7793 19.3489L14.7806 19.35C15.5035 19.9617 16.138 20.4109 16.6786 20.6971L16.7257 20.722L16.7751 20.7418C16.7819 20.7445 16.7966 20.7509 16.8399 20.7707C16.8763 20.7874 16.9321 20.8132 16.9926 20.8391L17.0138 20.8482L17.0354 20.8563C17.2882 20.9511 17.5224 20.9733 17.7198 20.9733C18.2244 20.9733 18.6472 20.7788 18.9708 20.4565L19.9822 19.4584L19.9869 19.4537C20.2798 19.1608 20.5183 18.9826 20.7024 18.8865L20.7316 18.8713L20.7598 18.8542C20.9294 18.7509 21.0582 18.72 21.1865 18.72C21.2933 18.72 21.4315 18.7413 21.6212 18.8188C21.8287 18.9037 22.0702 19.0364 22.3628 19.2347L26.7676 22.362L26.7773 22.3688C26.9882 22.5148 27.0958 22.6533 27.1584 22.789C27.2503 23.0234 27.2932 23.2252 27.2932 23.44C27.2932 23.77 27.2202 24.1177 27.0556 24.4663C26.8687 24.8621 26.6288 25.2323 26.3122 25.5818" fill="white" fill-opacity="0.8"/>
<path fill-rule="evenodd" clip-rule="evenodd" d="M18 6.33325C18 5.78097 18.4477 5.33325 19 5.33325C20.5222 5.33325 21.902 6.2825 22.8388 7.29207C23.3645 7.85558 23.8086 8.4869 24.126 9.10436C24.4333 9.70201 24.6667 10.3735 24.6667 10.9999C24.6667 11.5522 24.219 11.9999 23.6667 11.9999C23.1144 11.9999 22.6667 11.5522 22.6667 10.9999C22.6667 10.8263 22.5867 10.4845 22.3473 10.0188C22.1183 9.57335 21.7827 9.09177 21.3756 8.65557L21.3735 8.6533L21.3735 8.6533C20.6036 7.82329 19.7172 7.33325 19 7.33325C18.4477 7.33325 18 6.88554 18 6.33325Z" fill="white" fill-opacity="0.8"/>
<path fill-rule="evenodd" clip-rule="evenodd" d="M18 1.66663C18 1.11434 18.4477 0.666626 19 0.666626C24.7123 0.666626 29.3333 5.28767 29.3333 11C29.3333 11.5522 28.8856 12 28.3333 12C27.781 12 27.3333 11.5522 27.3333 11C27.3333 6.39224 23.6077 2.66663 19 2.66663C18.4477 2.66663 18 2.21891 18 1.66663Z" fill="white" fill-opacity="0.8"/>
</svg>
