<svg width="28" height="20" viewBox="0 0 28 20" fill="none" xmlns="http://www.w3.org/2000/svg">
<path d="M27.125 17.5296C27.125 18.3866 26.4303 19.0814 25.5733 19.0814H2.42667C1.5697 19.0814 0.875 18.3866 0.875 17.5296V2.53C0.875 1.67297 1.5697 0.978271 2.42667 0.978271H25.5733C26.4303 0.978271 27.125 1.67303 27.125 2.53V17.5296Z" fill="white"/>
<path d="M6.70092 10.1343L6.08456 7.17754C5.9792 6.7698 5.67261 6.64849 5.28952 6.63245H2.46365L2.43848 6.76754C4.63943 7.3011 6.09574 8.58828 6.70092 10.1343Z" fill="#F79F1A"/>
<path d="M13.2494 6.69177H11.4235L10.2832 13.3838H12.106L13.2494 6.69177Z" fill="#059BBF"/>
<path d="M7.81369 13.3774L10.6853 6.69666H8.7529L6.96652 11.2611L6.77584 10.5719C6.42567 9.74283 5.42489 8.54954 4.25 7.79833L5.88293 13.3797L7.81369 13.3774Z" fill="#059BBF"/>
<path d="M18.4567 11.1962C18.4635 10.4364 17.9757 9.85693 16.9244 9.37828C16.2856 9.06912 15.8962 8.86297 15.9008 8.54925C15.9008 8.27209 16.2306 7.97437 16.9451 7.97437C17.543 7.96519 17.9734 8.09572 18.3101 8.23087L18.4751 8.30649L18.7225 6.85674C18.3606 6.72154 17.7948 6.57727 17.0873 6.57727C15.2848 6.57727 14.016 7.48428 14.0045 8.78514C13.993 9.74711 14.9116 10.283 15.6032 10.6036C16.3131 10.9304 16.5513 11.1395 16.5467 11.4327C16.5422 11.881 15.981 12.0854 15.4565 12.0854C14.7259 12.0854 14.3389 11.9846 13.7385 11.7345L13.5053 11.6274L13.249 13.127C13.6747 13.313 14.4625 13.4756 15.2802 13.4824C17.197 13.4824 18.443 12.5869 18.4567 11.1962Z" fill="#059BBF"/>
<path d="M20.6255 12.381C20.8339 12.381 22.6959 12.3833 22.9617 12.3833C23.0166 12.6163 23.1838 13.3863 23.1838 13.3863H24.8763L23.399 6.69885H21.9906C21.5531 6.69885 21.228 6.81795 21.0355 7.25303L18.3262 13.3863H20.2432C20.2431 13.3863 20.5545 12.562 20.6255 12.381ZM21.8759 9.14021C21.8669 9.15851 22.0272 8.75317 22.1188 8.50123L22.2424 9.07832C22.2424 9.07832 22.5906 10.677 22.6638 11.0114H21.1499C21.3011 10.6267 21.8759 9.14021 21.8759 9.14021Z" fill="#059BBF"/>
<path d="M25.5733 0.978271H2.42667C1.5697 0.978271 0.875 1.67297 0.875 2.53V4.14047H27.125V2.53C27.125 1.67297 26.4303 0.978271 25.5733 0.978271Z" fill="#059BBF"/>
<path d="M25.5733 19.0814H2.42667C1.5697 19.0814 0.875 18.3866 0.875 17.5297V15.9192H27.125V17.5297C27.125 18.3866 26.4303 19.0814 25.5733 19.0814Z" fill="#F79F1A"/>
</svg>
