<svg width="28" height="19" viewBox="0 0 28 19" fill="none" xmlns="http://www.w3.org/2000/svg">
<path d="M27.125 16.8013C27.125 17.6584 26.4303 18.3531 25.5733 18.3531H2.42667C1.5697 18.3532 0.875 17.6584 0.875 16.8013V1.80172C0.875 0.944754 1.5697 0.25 2.42667 0.25H25.5733C26.4303 0.25 27.125 0.944754 27.125 1.80172V16.8013Z" fill="#306FC5"/>
<path d="M4.69922 7.49407H5.48354L5.09148 6.49585L4.69922 7.49407Z" fill="white"/>
<path d="M8.87012 10.8451V11.3086H10.1892V11.8078H8.87012V12.3427H10.3318L11.0091 11.5939L10.3674 10.8451H8.87012Z" fill="white"/>
<path d="M19.173 6.49585L18.7451 7.49407H19.5652L19.173 6.49585Z" fill="white"/>
<path d="M12.6848 12.6276V10.5956L11.7578 11.5939L12.6848 12.6276Z" fill="white"/>
<path d="M14.4319 11.1661C14.3962 10.9522 14.2535 10.8451 14.0395 10.8451H13.291V11.4868H14.0754C14.2892 11.4868 14.4319 11.3799 14.4319 11.1661Z" fill="white"/>
<path d="M16.9269 11.4157C16.9982 11.3799 17.034 11.2729 17.034 11.1661C17.0697 11.0236 16.9982 10.9522 16.9269 10.9165C16.8558 10.8809 16.7487 10.8809 16.6419 10.8809H15.9287V11.4513H16.6418C16.7486 11.4513 16.8557 11.4513 16.9269 11.4157Z" fill="white"/>
<path d="M22.0602 5.56909V5.99689L21.8464 5.56909H20.1711V5.99689L19.9571 5.56909H17.6755C17.2833 5.56909 16.9623 5.64046 16.6773 5.78304V5.56909H15.0731V5.60478V5.78304C14.8949 5.64051 14.681 5.56909 14.3958 5.56909H8.65617L8.26385 6.46036L7.8718 5.56909H6.58847H6.05368V5.99689L5.87541 5.56909H5.83973H4.30682L3.59371 7.24458L2.77386 9.0627L2.75879 9.09844H2.77386H4.59203H4.6148L4.62772 9.0627L4.84172 8.52806H5.30514L5.51904 9.09844H7.58653V9.0627V8.67064L7.7649 9.09838H8.79865L8.97681 8.67064V9.0627V9.09844H9.79676H13.8965H13.9322V8.17148H14.0037C14.0749 8.17148 14.0749 8.17148 14.0749 8.27848V9.06275H16.6417V8.84886C16.8556 8.95596 17.1762 9.06275 17.6041 9.06275H18.6737L18.8876 8.49248H19.3866L19.6005 9.06275H21.6681V8.70633V8.52811L21.9891 9.06275H22.0602H22.096H23.6646V5.56909H22.0603H22.0602ZM9.97513 8.5638H9.61855H9.4047V8.35005V6.60299L9.36902 6.68477V6.68379L8.53969 8.5638H8.51343H8.32276H8.01428L7.15874 6.60299V8.5638H5.94673L5.6972 8.02906H4.48498L4.2354 8.5638H3.60874L4.66335 6.06825H5.55452L6.55268 8.45675V6.06825H6.76653H7.49717L7.51399 6.10399H7.51522L7.965 7.08293L8.288 7.81639L8.29944 7.77942L9.01239 6.0683H9.97508V8.5638H9.97513ZM12.435 6.60299H11.0447V7.06642H12.3994V7.56548H11.0447V8.06474H12.435V8.59933H10.4387V6.0683H12.435V6.60299ZM14.9778 7.52226C14.9787 7.52308 14.9799 7.52364 14.981 7.52441C14.9945 7.53866 15.006 7.55297 15.0158 7.56666C15.0841 7.65617 15.1394 7.78932 15.1421 7.98455C15.1423 7.98794 15.1425 7.99127 15.1427 7.99465C15.1427 7.9966 15.143 7.99829 15.143 8.00029C15.143 8.00142 15.1429 8.00229 15.1429 8.00337C15.1438 8.02301 15.1443 8.04305 15.1443 8.06474V8.56385H14.6096V8.27853C14.6096 8.13595 14.6096 7.922 14.5025 7.77942C14.4689 7.74574 14.4348 7.72354 14.3976 7.70775C14.3442 7.67314 14.243 7.67258 14.0749 7.67258H13.433V8.56385H12.8271V6.0683H14.1819C14.5025 6.0683 14.7165 6.0683 14.8949 6.17525C15.0695 6.28015 15.175 6.45411 15.179 6.72958C15.1708 7.10897 14.9273 7.31713 14.7522 7.38732C14.7522 7.38732 14.8711 7.41126 14.9778 7.52226ZM16.1782 8.5638H15.5721V6.06825H16.1782V8.5638ZM23.13 8.5638H22.3455L21.2048 6.67426V8.24285L21.2011 8.23916V8.56534H20.5988V8.56385H19.9927L19.7788 8.02911H18.5309L18.317 8.59938H17.6397C17.3547 8.59938 16.998 8.52817 16.7842 8.31427C16.5703 8.10037 16.4634 7.81516 16.4634 7.35178C16.4634 6.99531 16.5347 6.63857 16.7842 6.35346C16.9623 6.13941 17.2833 6.0683 17.6754 6.0683H18.2459V6.60299H17.6754C17.4615 6.60299 17.3547 6.63852 17.2118 6.74568C17.1051 6.85257 17.0337 7.06642 17.0337 7.31595C17.0337 7.60121 17.0694 7.77942 17.2118 7.92201C17.319 8.02911 17.4615 8.06479 17.6397 8.06479H17.8892L18.7091 6.10409H19.0658H19.6004L20.5987 8.49258V8.37077V7.56558V7.49437V6.10414H21.4899L22.5236 7.85089V6.10414H23.1299V8.5639H23.13V8.5638Z" fill="white"/>
<path d="M14.4691 7.10743C14.4795 7.0963 14.4889 7.08369 14.4969 7.06923C14.5292 7.01812 14.5662 6.92604 14.5463 6.80038C14.5455 6.78884 14.5434 6.77818 14.5409 6.76787C14.5402 6.765 14.5403 6.76249 14.5396 6.75962L14.5392 6.75967C14.5215 6.69861 14.4762 6.66108 14.431 6.63831C14.3596 6.60278 14.2526 6.60278 14.1457 6.60278H13.4326V7.17326H14.1457C14.2526 7.17326 14.3596 7.17326 14.431 7.13753C14.4418 7.13209 14.4513 7.12471 14.4605 7.11635L14.4606 7.11681C14.4606 7.11676 14.4643 7.11297 14.4691 7.10743Z" fill="white"/>
<path d="M25.2334 12.1286C25.2334 11.8791 25.1622 11.6295 25.0553 11.4512V9.84707H25.0537V9.73997C25.0537 9.73997 23.5594 9.73997 23.337 9.73997C23.1147 9.73997 22.8449 9.95382 22.8449 9.95382V9.73997H21.2051C20.9554 9.73997 20.6348 9.81134 20.492 9.95382V9.73997H17.5688V9.84707V9.95376C17.3551 9.77565 16.9626 9.73992 16.7845 9.73992H14.8594V9.84702V9.95371C14.6812 9.7756 14.2532 9.73987 14.0392 9.73987H11.9005L11.4013 10.2747L10.9378 9.73987H10.7886H10.5457H7.72949V9.84697V10.1286V13.3407H10.8667L11.3821 12.8251L11.829 13.3407H11.8647H13.6724H13.7543H13.79H13.8255V12.9842V12.5208H14.0039C14.2532 12.5208 14.5742 12.5208 14.8237 12.4137V13.3048V13.3763H16.428V13.3048V12.4494H16.4991C16.6062 12.4494 16.6062 12.4494 16.6062 12.5563V13.3048V13.3763H21.4544C21.7755 13.3763 22.0961 13.3048 22.2743 13.1623V13.3048V13.3763H23.8074C24.128 13.3763 24.4492 13.3407 24.663 13.198C24.9913 13.0011 25.1981 12.6525 25.2289 12.2367C25.2303 12.2244 25.2321 12.2121 25.2333 12.1998L25.2312 12.1978C25.2325 12.1747 25.2334 12.1519 25.2334 12.1286ZM14.0039 11.9148H13.2907V12.0215V12.2355V12.4494V12.8416H12.119L11.437 12.0572L11.4346 12.0598L11.4013 12.0215L10.617 12.8416H8.3355V10.3461H10.6527L11.2858 11.0396L11.4189 11.1847L11.4369 11.166L12.1857 10.3462H14.0751C14.4417 10.3462 14.8524 10.4367 15.008 10.8098C15.0267 10.8836 15.0376 10.9658 15.0376 11.0591C15.0376 11.772 14.5384 11.9148 14.0039 11.9148ZM17.5688 11.879C17.64 11.9857 17.6757 12.1286 17.6757 12.3426V12.8415H17.0698V12.5208C17.0698 12.3779 17.0698 12.1286 16.9627 12.0215C16.8916 11.9148 16.7488 11.9148 16.535 11.9148H15.8934V12.8416H15.2874V10.3104H16.642C16.927 10.3104 17.1765 10.3104 17.3551 10.4173C17.5332 10.5243 17.6757 10.7026 17.6757 10.9878C17.6757 11.3799 17.4263 11.5938 17.248 11.6652C17.4263 11.7362 17.5332 11.8077 17.5688 11.879ZM20.0287 10.845H18.6382V11.3085H19.993V11.8077H18.6382V12.3068H20.0287V12.8415H18.0324V10.3104H20.0287V10.845ZM21.5259 12.8416H20.3851V12.3069H21.5259C21.6327 12.3069 21.7041 12.3069 21.7756 12.2355C21.8113 12.1998 21.8467 12.1286 21.8467 12.0573C21.8467 11.9858 21.8113 11.9148 21.7756 11.8791C21.7398 11.8435 21.6684 11.8078 21.5615 11.8078C20.9911 11.7721 20.3138 11.8078 20.3138 11.0236C20.3138 10.667 20.5276 10.2748 21.1694 10.2748H22.3458V10.8808H21.2407C21.1338 10.8808 21.0624 10.8808 20.991 10.9165C20.9199 10.9522 20.9199 11.0236 20.9199 11.0948C20.9199 11.2018 20.991 11.2375 21.0623 11.2728C21.1338 11.3086 21.205 11.3086 21.2762 11.3086H21.5971C21.918 11.3086 22.1319 11.3799 22.2745 11.5225C22.3815 11.6295 22.4528 11.8078 22.4528 12.0573C22.4528 12.5918 22.1319 12.8416 21.5259 12.8416ZM24.5918 12.5918C24.4494 12.7346 24.1997 12.8416 23.843 12.8416H22.7025V12.3069H23.843C23.95 12.3069 24.0215 12.3069 24.0927 12.2355C24.1282 12.1998 24.164 12.1286 24.164 12.0573C24.164 11.9858 24.1282 11.9148 24.0927 11.8791C24.057 11.8435 23.9858 11.8078 23.8788 11.8078C23.3086 11.7721 22.631 11.8078 22.631 11.0236C22.631 10.6848 22.8249 10.3787 23.303 10.2878C23.3601 10.2799 23.4205 10.2748 23.4867 10.2748H24.6632V10.8808H23.8788H23.5937H23.558C23.451 10.8808 23.3798 10.8808 23.3086 10.9165C23.2727 10.9522 23.237 11.0236 23.237 11.0948C23.237 11.2018 23.2727 11.2375 23.3798 11.2728C23.451 11.3086 23.5223 11.3086 23.5937 11.3086H23.6291H23.9144C24.0702 11.3086 24.188 11.3278 24.2959 11.3657C24.3946 11.4014 24.7215 11.5476 24.7946 11.9293C24.801 11.9693 24.8056 12.0111 24.8056 12.0573C24.8056 12.2712 24.7343 12.4494 24.5918 12.5918Z" fill="white"/>
</svg>
