<svg width="213" height="202" viewBox="0 0 213 202" fill="none" xmlns="http://www.w3.org/2000/svg">
<circle cx="173.5" cy="97" r="39" fill="#373737"/>
<circle cx="62.5" cy="172" r="30" fill="#373737"/>
<circle cx="52.5" cy="52" r="52" fill="#373737"/>
<path d="M93.1054 170.767C85.2288 170.767 78.8435 164.713 78.8435 157.245C78.8435 149.777 85.2288 143.723 93.1054 143.723C100.982 143.723 107.367 149.777 107.367 157.245C107.367 164.713 100.982 170.767 93.1054 170.767Z" fill="#4671C6"/>
<path d="M93.0981 164.867C97.5305 164.867 101.137 161.447 101.137 157.245C101.137 153.042 97.5305 149.623 93.0981 149.623C88.6663 149.623 85.0601 153.042 85.0601 157.245C85.0601 161.447 88.6657 164.867 93.0981 164.867Z" fill="#F9CFCF"/>
<path d="M93.0944 172C101.675 172 108.656 165.381 108.656 157.245C108.656 149.109 101.675 142.49 93.0944 142.49C84.5136 142.49 77.5332 149.109 77.5332 157.245C77.5332 165.381 84.5136 172 93.0944 172ZM93.0944 144.955C100.242 144.955 106.056 150.468 106.056 157.245C106.056 164.022 100.242 169.535 93.0944 169.535C85.9476 169.535 80.1332 164.022 80.1332 157.245C80.1332 150.468 85.9476 144.955 93.0944 144.955Z" fill="#273E76"/>
<path d="M153.207 170.767C145.33 170.767 138.945 164.713 138.945 157.245C138.945 149.777 145.33 143.723 153.207 143.723C161.084 143.723 167.469 149.777 167.469 157.245C167.469 164.713 161.084 170.767 153.207 170.767Z" fill="#4671C6"/>
<path d="M153.215 164.867C157.648 164.867 161.254 161.447 161.254 157.245C161.254 153.042 157.648 149.623 153.215 149.623C148.784 149.623 145.177 153.042 145.177 157.245C145.177 161.447 148.783 164.867 153.215 164.867Z" fill="#F9CFCF"/>
<path d="M153.216 172C161.797 172 168.777 165.381 168.777 157.245C168.777 149.109 161.796 142.49 153.216 142.49C144.635 142.49 137.654 149.109 137.654 157.245C137.654 165.381 144.635 172 153.216 172ZM153.216 144.955C160.363 144.955 166.177 150.468 166.177 157.245C166.177 164.022 160.363 169.535 153.216 169.535C146.069 169.535 140.254 164.022 140.254 157.245C140.254 150.468 146.069 144.955 153.216 144.955Z" fill="#273E76"/>
<path d="M149.021 143.723V153.852C149.021 155.681 150.585 157.165 152.515 157.165H153.519C155.009 157.165 156.336 156.268 156.822 154.933L160.902 143.723H149.021V143.723Z" fill="#A4C9FF"/>
<path d="M88.8997 143.723V153.852C88.8997 155.681 90.4643 157.165 92.3942 157.165H93.3978C94.8883 157.165 96.2149 156.268 96.7012 154.933L100.781 143.723H88.8997V143.723Z" fill="#A4C9FF"/>
<path d="M152.516 158.398H153.52C155.564 158.398 157.386 157.167 158.053 155.335L162.132 144.125C162.269 143.748 162.205 143.331 161.962 143.007C161.718 142.683 161.323 142.49 160.904 142.49H149.022C148.304 142.49 147.722 143.042 147.722 143.723V153.852C147.722 156.358 149.873 158.398 152.516 158.398ZM159.08 144.955L155.595 154.53C155.289 155.369 154.456 155.932 153.52 155.932H152.516C151.306 155.932 150.322 154.999 150.322 153.852V144.955H159.08Z" fill="#273E76"/>
<path d="M92.4103 158.398H93.414C95.4582 158.398 97.2796 157.167 97.9465 155.335L102.027 144.126C102.164 143.749 102.1 143.332 101.856 143.008C101.613 142.684 101.218 142.491 100.798 142.491H88.9159C88.1983 142.491 87.6159 143.043 87.6159 143.724V153.853C87.6152 156.359 89.7668 158.398 92.4103 158.398ZM98.9735 144.956L95.4888 154.531C95.1833 155.37 94.35 155.933 93.4146 155.933H92.411C91.2007 155.933 90.2166 154.999 90.2166 153.852V144.956H98.9735Z" fill="#273E76"/>
<path d="M32.8482 51.389H58.404C60.0966 51.389 61.4688 50.088 61.4688 48.4831V41.2194C61.4688 39.6145 60.0966 38.3135 58.404 38.3135H32.8482C31.1556 38.3135 29.7834 39.6145 29.7834 41.2194V48.4838C29.7834 50.088 31.1556 51.389 32.8482 51.389Z" fill="#F9A7A7"/>
<path d="M32.8724 52.6218H58.4282C60.8351 52.6218 62.793 50.7655 62.793 48.4833V41.2195C62.793 38.9374 60.8351 37.0811 58.4282 37.0811H32.8724C30.4654 37.0811 28.5076 38.9374 28.5076 41.2195V48.4839C28.5076 50.7655 30.4654 52.6218 32.8724 52.6218ZM58.4282 39.5463C59.4012 39.5463 60.1929 40.2969 60.1929 41.2195V48.4839C60.1929 49.4066 59.4012 50.1572 58.4282 50.1572H32.8724C31.8994 50.1572 31.1077 49.4066 31.1077 48.4839V41.2195C31.1077 40.2969 31.8994 39.5463 32.8724 39.5463H58.4282Z" fill="#273E76"/>
<path d="M70.602 51.2664C70.3706 49.6794 69.0277 48.4825 67.4794 48.4825H61.4844V41.2188H67.4794C72.8342 41.2188 77.4395 45.1107 78.1922 50.2717L79.0859 56.4014H75.8651C74.7601 56.4014 73.7091 56.8538 72.9817 57.6427C72.2537 58.4315 71.9215 59.4799 72.0691 60.5184L70.602 51.2664Z" fill="#A4C9FF"/>
<path d="M72.0561 61.753C72.1172 61.753 72.1783 61.7487 72.2407 61.7401C72.9479 61.6445 73.4412 61.0264 73.3457 60.3552C73.2488 59.6687 73.4679 58.9766 73.9483 58.4558C74.4293 57.9338 75.1235 57.6349 75.8534 57.6349H79.0749C79.4506 57.6349 79.8081 57.4808 80.0551 57.2121C80.3021 56.9434 80.4145 56.5865 80.3625 56.2334L79.4688 50.1036C78.6283 44.3362 73.4692 39.9863 67.469 39.9863H61.4739C60.7563 39.9863 60.1739 40.5385 60.1739 41.2189V48.4833C60.1739 49.1637 60.7563 49.7159 61.4739 49.7159H67.469C68.3725 49.7159 69.1616 50.4555 69.3039 51.4354C69.3046 51.4404 69.3052 51.4453 69.3059 51.4496L70.7717 60.7016C70.8685 61.3136 71.423 61.753 72.0561 61.753ZM77.5831 55.1709H75.8541C74.6977 55.1709 73.5849 55.5413 72.6892 56.2069L71.8786 51.0922C71.5556 48.9024 69.6614 47.252 67.469 47.252H62.7739V42.4528H67.469C72.1776 42.4528 76.2298 45.8875 76.8941 50.442L77.5831 55.1709ZM70.5916 51.2678H70.5851H70.5916Z" fill="#273E76"/>
<path d="M72.9786 57.6436C73.7059 56.8547 74.757 56.4023 75.862 56.4023H176.572C178.484 56.4023 180.302 57.1844 181.561 58.5489C182.819 59.9134 183.395 61.726 183.14 63.5238L175.366 118.268C174.74 122.681 170.725 126.01 166.028 126.01H154.436H152.122H150.56H104.672H103.109H99.7329H89.6045C84.9075 126.01 80.8937 122.682 80.2671 118.268L72.0659 60.5199C71.9184 59.4802 72.2505 58.4325 72.9786 57.6436ZM175.389 63.6661H160.581L158.375 87.5732H171.994L175.389 63.6661ZM166.027 118.745C166.905 118.745 167.656 118.123 167.773 117.298L170.962 94.8376H157.704L155.498 118.745H166.027ZM131.446 118.745H147.807L150.013 94.8376H131.446V118.745ZM131.446 87.5732H150.683L152.889 63.6661H131.446V87.5732ZM107.423 118.745H123.785V94.8376H105.218L107.423 118.745ZM104.547 87.5732H123.784V63.6661H102.341L104.547 87.5732ZM87.8592 117.298C87.9769 118.123 88.7263 118.745 89.6038 118.745H99.7316L97.5261 94.8376H84.6696L87.8592 117.298ZM83.638 87.5732H96.856L94.6498 63.6661H80.2431L83.638 87.5732Z" fill="#A4C9FF"/>
<path d="M84.8272 126.01C81.9931 126.01 79.6882 128.354 79.6882 131.234C79.6882 134.115 81.9931 136.459 84.8272 136.459H170.912C173.027 136.459 174.742 138.085 174.742 140.091C174.742 142.097 173.027 143.723 170.912 143.723H84.8265C77.7681 143.723 72.0259 138.121 72.0259 131.234C72.0259 125.818 75.5847 121.209 80.5358 119.482C81.6603 123.276 85.3446 126.009 89.5982 126.009L84.8272 126.01Z" fill="#A4C9FF"/>
<path d="M89.6044 127.242H166.029C171.374 127.242 175.942 123.454 176.655 118.432L184.429 63.6885C184.734 61.5388 184.045 59.37 182.54 57.7375C181.035 56.1061 178.86 55.1699 176.574 55.1699H75.8626C74.3825 55.1699 72.9752 55.7758 72.0009 56.8327C71.0265 57.8884 70.5806 59.2918 70.7782 60.684L78.9794 118.433C79.6911 123.455 84.2594 127.242 89.6044 127.242ZM176.573 57.6358C178.11 57.6358 179.571 58.265 180.582 59.3614C181.594 60.4578 182.057 61.916 181.852 63.36L174.078 118.103C173.537 121.908 170.077 124.777 166.028 124.777H89.6038C85.5549 124.777 82.0949 121.908 81.5547 118.104L73.3535 60.3549C73.2567 59.6683 73.4757 58.9762 73.9561 58.4561C73.9561 58.4561 73.9561 58.4561 73.9561 58.4554C74.4371 57.9341 75.1313 57.6351 75.8613 57.6351H176.573V57.6358ZM89.6044 119.978H99.7322C100.097 119.978 100.445 119.833 100.691 119.578C100.937 119.324 101.06 118.982 101.028 118.638L98.8215 94.7312C98.763 94.0946 98.2008 93.6058 97.5267 93.6058H84.6702C84.2951 93.6058 83.9383 93.7593 83.6919 94.0274C83.4449 94.2949 83.3318 94.6505 83.3819 95.003L86.5715 117.464C86.7756 118.897 88.0795 119.978 89.6044 119.978ZM98.3139 117.513H89.6044C89.3789 117.513 89.178 117.347 89.1481 117.135L86.1568 96.0711H96.3353L98.3139 117.513ZM87.8598 117.299H87.8533H87.8598ZM107.424 119.978H123.784C124.502 119.978 125.084 119.426 125.084 118.746V94.8384C125.084 94.158 124.502 93.6058 123.784 93.6058H105.218C104.853 93.6058 104.505 93.7507 104.259 94.0058C104.013 94.2603 103.89 94.6018 103.922 94.9457L106.128 118.853C106.187 119.489 106.75 119.978 107.424 119.978ZM122.485 117.513H108.615L106.637 96.0711H122.485V117.513ZM131.446 119.978H147.807C148.482 119.978 149.044 119.49 149.102 118.853L151.308 94.9457C151.34 94.6012 151.218 94.2603 150.972 94.0058C150.725 93.7513 150.378 93.6058 150.013 93.6058H131.446C130.729 93.6058 130.146 94.158 130.146 94.8384V118.746C130.146 119.426 130.729 119.978 131.446 119.978ZM146.617 117.513H132.746V96.0711H148.595L146.617 117.513ZM155.499 119.978H166.029C167.554 119.978 168.858 118.897 169.062 117.464L172.252 95.003C172.302 94.6505 172.189 94.2949 171.942 94.0274C171.695 93.7593 171.338 93.6058 170.963 93.6058H157.705C157.031 93.6058 156.469 94.0939 156.41 94.7312L154.204 118.638C154.172 118.983 154.295 119.324 154.541 119.578C154.787 119.833 155.134 119.978 155.499 119.978ZM169.477 96.0711L166.485 117.135C166.456 117.347 166.255 117.513 166.029 117.513H156.918L158.897 96.0711H169.477ZM83.6386 88.8073H96.8566C97.2212 88.8073 97.569 88.6624 97.8153 88.4073C98.0617 88.1528 98.1839 87.8113 98.152 87.4674L95.9459 63.5597C95.8874 62.923 95.3251 62.4343 94.6511 62.4343H80.2443C79.8692 62.4343 79.5124 62.5878 79.2654 62.8559C79.019 63.1233 78.9059 63.479 78.956 63.8315L82.351 87.7392C82.4368 88.3506 82.988 88.8073 83.6386 88.8073ZM95.4376 86.3421H84.7755L81.7302 64.8995H93.4596L95.4376 86.3421ZM104.548 88.8073H123.785C124.503 88.8073 125.085 88.2551 125.085 87.5747V63.6669C125.085 62.9865 124.503 62.4343 123.785 62.4343H102.342C101.977 62.4343 101.63 62.5791 101.383 62.8343C101.137 63.0888 101.015 63.4303 101.047 63.7742L103.253 87.6819C103.312 88.3185 103.873 88.8073 104.548 88.8073ZM122.485 86.3421H105.739L103.761 64.8995H122.485V86.3421ZM131.446 88.8073H150.684C151.358 88.8073 151.921 88.3192 151.979 87.6819L154.185 63.7742C154.217 63.4297 154.095 63.0888 153.849 62.8343C153.602 62.5791 153.255 62.4343 152.89 62.4343H131.446C130.729 62.4343 130.146 62.9865 130.146 63.6669V87.5747C130.146 88.2551 130.729 88.8073 131.446 88.8073ZM149.493 86.3421H132.746V64.8995H151.472L149.493 86.3421ZM158.375 88.8073H171.995C172.646 88.8073 173.197 88.3506 173.283 87.7392L176.678 63.8315C176.728 63.479 176.615 63.1233 176.368 62.8559C176.122 62.5878 175.765 62.4343 175.39 62.4343H160.581C159.907 62.4343 159.345 62.9224 159.287 63.5597L157.08 87.4674C157.049 87.8119 157.171 88.1528 157.417 88.4073C157.663 88.6618 158.011 88.8073 158.375 88.8073ZM170.859 86.3421H159.794L161.773 64.8995H173.903L170.859 86.3421Z" fill="#273E76"/>
<path d="M84.8351 144.956H170.92C173.749 144.956 176.051 142.774 176.051 140.091C176.051 137.409 173.749 135.227 170.92 135.227H84.8351C82.718 135.227 80.9961 133.436 80.9961 131.234C80.9961 129.033 82.718 127.242 84.8351 127.242H89.6068C90.3244 127.242 90.9068 126.69 90.9068 126.009C90.9068 125.329 90.3244 124.777 89.6068 124.777C85.9901 124.777 82.7778 122.463 81.7956 119.149C81.6975 118.818 81.4583 118.542 81.1352 118.385C80.8122 118.229 80.4352 118.207 80.0952 118.326C74.496 120.278 70.7345 125.466 70.7345 131.234C70.7351 138.801 77.0603 144.956 84.8351 144.956ZM170.92 137.692C172.315 137.692 173.451 138.769 173.451 140.091C173.451 141.414 172.315 142.491 170.92 142.491H84.8351C78.4936 142.491 73.3345 137.441 73.3345 131.234C73.3345 126.922 75.8812 123.009 79.7904 121.136C80.508 122.69 81.6162 124.026 82.9826 125.05C80.3325 125.85 78.3961 128.32 78.3961 131.235C78.3961 134.796 81.2847 137.693 84.8351 137.693H170.92V137.692Z" fill="#273E76"/>
<path d="M134.283 19.9525V35.7633C134.283 37.2179 133.054 38.3985 131.54 38.3985H128.798C127.283 38.3985 126.055 37.2179 126.055 35.7633V19.9525C126.055 18.4979 127.283 17.3174 128.798 17.3174H131.54C133.057 17.3174 134.283 18.4979 134.283 19.9525Z" fill="#A4C9FF"/>
<path d="M131.549 39.7162H128.806C126.537 39.7162 124.691 37.9428 124.691 35.7635V19.9527C124.691 17.7734 126.537 16 128.806 16H131.549C133.817 16 135.663 17.7734 135.663 19.9527V35.7635C135.663 37.9428 133.817 39.7162 131.549 39.7162ZM128.806 18.6351C128.051 18.6351 127.434 19.2254 127.434 19.9527V35.7635C127.434 36.4908 128.051 37.0811 128.806 37.0811H131.549C132.303 37.0811 132.92 36.4908 132.92 35.7635V19.9527C132.92 19.2254 132.303 18.6351 131.549 18.6351H128.806Z" fill="#273E76"/>
<path d="M102.201 24.3059L110.429 37.9981C111.186 39.2577 110.736 40.8704 109.425 41.5977L107.05 42.9152C105.739 43.6425 104.06 43.2104 103.303 41.9508L95.0746 28.2586C94.3176 26.999 94.7674 25.3863 96.0785 24.659L98.4538 23.3414C99.7677 22.6141 101.444 23.0463 102.201 24.3059Z" fill="#A4C9FF"/>
<path d="M105.687 44.5859C104.261 44.5859 102.878 43.8771 102.116 42.6096L93.8873 28.9174C92.7518 27.0307 93.4265 24.609 95.3932 23.518L97.7685 22.2005C98.7203 21.6734 99.8284 21.5364 100.893 21.8078C101.954 22.0819 102.84 22.738 103.389 23.6498L111.614 37.3393C112.75 39.2261 112.075 41.6504 110.111 42.7387L107.736 44.0563C107.089 44.4146 106.381 44.5859 105.687 44.5859ZM99.8229 24.3059C99.5843 24.3059 99.3511 24.3665 99.1399 24.4825L96.7646 25.8001C96.1091 26.1637 95.8841 26.9701 96.2599 27.5999L104.489 41.292C104.867 41.9192 105.712 42.1353 106.365 41.7742L108.74 40.4567C109.393 40.093 109.618 39.2867 109.242 38.6569L101.013 24.9647C101.011 24.9647 101.011 24.9647 101.011 24.9647C100.83 24.6617 100.533 24.443 100.179 24.3534C100.062 24.3191 99.9408 24.3059 99.8229 24.3059Z" fill="#273E76"/>
<path d="M165.281 28.2586L157.052 41.9508C156.295 43.2104 154.616 43.6425 153.305 42.9152L150.93 41.5977C149.619 40.8704 149.169 39.2577 149.926 37.9981L158.155 24.3059C158.912 23.0463 160.59 22.6141 161.902 23.3414L164.277 24.659C165.591 25.3863 166.038 26.999 165.281 28.2586Z" fill="#A4C9FF"/>
<path d="M154.678 44.5883C153.965 44.5883 153.26 44.4091 152.629 44.056L150.254 42.7384C149.302 42.2114 148.619 41.3602 148.337 40.3378C148.054 39.3154 148.197 38.2508 148.748 37.3364L156.977 23.6442C158.11 21.7601 160.627 21.1066 162.597 22.1975L164.972 23.5151C166.936 24.6087 167.611 27.0277 166.475 28.9145L158.247 42.6067C157.701 43.5211 156.815 44.1746 155.751 44.4486C155.397 44.5435 155.035 44.5883 154.678 44.5883ZM160.542 24.3057C160.068 24.3057 159.604 24.5428 159.349 24.9644L151.121 38.6566C150.94 38.9623 150.89 39.3154 150.984 39.6553C151.08 39.9952 151.304 40.2798 151.623 40.4564L153.998 41.774C154.313 41.9479 154.681 41.9953 155.038 41.9057C155.391 41.8135 155.685 41.5974 155.869 41.2917L164.1 27.5996C164.478 26.9698 164.254 26.1634 163.598 25.7971L161.223 24.4796C161.009 24.3636 160.776 24.3057 160.542 24.3057Z" fill="#273E76"/>
</svg>
