<svg width="30" height="30" viewBox="0 0 30 30" fill="none" xmlns="http://www.w3.org/2000/svg">
<path fill-rule="evenodd" clip-rule="evenodd" d="M14.9998 2.66663C8.19212 2.66663 2.6665 8.19224 2.6665 15C2.6665 21.8077 8.19212 27.3333 14.9998 27.3333C21.8076 27.3333 27.3332 21.8077 27.3332 15C27.3332 8.19224 21.8076 2.66663 14.9998 2.66663ZM0.666504 15C0.666504 7.08767 7.08755 0.666626 14.9998 0.666626C22.9121 0.666626 29.3332 7.08767 29.3332 15C29.3332 22.9122 22.9121 29.3333 14.9998 29.3333C7.08755 29.3333 0.666504 22.9122 0.666504 15Z" fill="white" fill-opacity="0.8"/>
<path fill-rule="evenodd" clip-rule="evenodd" d="M14.5063 8.01331C15.0586 8.01331 15.5063 8.46102 15.5063 9.01331V14.48C15.5063 14.6847 15.5845 14.9814 15.7584 15.2863C15.9322 15.5911 16.1477 15.8092 16.3228 15.913L16.3255 15.9146L16.3255 15.9146L20.4588 18.3813C20.9331 18.6643 21.0881 19.2782 20.8051 19.7524C20.522 20.2267 19.9081 20.3817 19.4339 20.0987L15.3032 17.6336C15.3027 17.6333 15.3023 17.633 15.3018 17.6328C14.7576 17.3098 14.3202 16.8017 14.021 16.277C13.7215 15.7518 13.5063 15.1152 13.5063 14.48V9.01331C13.5063 8.46102 13.9541 8.01331 14.5063 8.01331Z" fill="white" fill-opacity="0.8"/>
</svg>
