<svg width="16" height="16" viewBox="0 0 16 16" fill="none" xmlns="http://www.w3.org/2000/svg">
<path d="M8 16C12.4183 16 16 12.4183 16 8C16 3.58172 12.4183 0 8 0C3.58172 0 0 3.58172 0 8C0 12.4183 3.58172 16 8 16Z" fill="#2775CA"/>
<path d="M6.53333 13.533C6.53333 13.733 6.4 13.7997 6.2 13.7997C3.73333 12.9997 2 10.733 2 8.06635C2 5.39968 3.73333 3.13302 6.2 2.33302C6.4 2.26635 6.53333 2.39968 6.53333 2.59968V3.06635C6.53333 3.19968 6.46667 3.33302 6.33333 3.39968C4.4 4.13302 3.06667 5.93302 3.06667 8.06635C3.06667 10.1997 4.46667 12.0663 6.33333 12.733C6.46667 12.7997 6.53333 12.933 6.53333 13.0663V13.533Z" fill="white"/>
<path d="M8.53323 11.8669C8.53323 12.0002 8.3999 12.1336 8.26657 12.1336H7.73323C7.5999 12.1336 7.46657 12.0002 7.46657 11.8669V11.0669C6.3999 10.9336 5.86656 10.3336 5.66656 9.46689C5.66656 9.33356 5.73323 9.20023 5.86657 9.20023H6.46656C6.5999 9.20023 6.66657 9.26689 6.73323 9.40023C6.86657 9.86689 7.13323 10.2669 7.9999 10.2669C8.66657 10.2669 9.13323 9.93356 9.13323 9.40023C9.13323 8.86689 8.86657 8.66689 7.93323 8.53356C6.53323 8.33356 5.86657 7.93356 5.86657 6.80023C5.86657 5.93356 6.53323 5.26689 7.46657 5.13356V4.33356C7.46657 4.20023 7.5999 4.06689 7.73323 4.06689H8.26657C8.3999 4.06689 8.53323 4.20023 8.53323 4.33356V5.13356C9.33323 5.26689 9.86657 5.73356 9.9999 6.46689C9.9999 6.60023 9.93323 6.73356 9.7999 6.73356H9.26657C9.13323 6.73356 9.06657 6.66689 8.9999 6.53356C8.86657 6.06689 8.53323 5.86689 7.93323 5.86689C7.26656 5.86689 6.93323 6.20023 6.93323 6.66689C6.93323 7.13356 7.13323 7.40023 8.13323 7.53356C9.53323 7.73356 10.1999 8.13356 10.1999 9.26689C10.1999 10.1336 9.53323 10.8669 8.53323 11.0669V11.8669Z" fill="white"/>
<path d="M9.79995 13.8004C9.59995 13.8671 9.46661 13.7337 9.46661 13.5337V13.0671C9.46661 12.9337 9.53328 12.8004 9.66661 12.7337C11.5999 12.0004 12.9333 10.2004 12.9333 8.06707C12.9333 5.93374 11.5333 4.06707 9.66661 3.40041C9.53328 3.33374 9.46661 3.20041 9.46661 3.06707V2.60041C9.46661 2.40041 9.59995 2.33374 9.79995 2.33374C12.1999 3.13374 13.9999 5.40041 13.9999 8.06707C13.9999 10.7337 12.2666 13.0004 9.79995 13.8004Z" fill="white"/>
</svg>
