<svg width="20" height="20" viewBox="0 0 20 20" fill="none" xmlns="http://www.w3.org/2000/svg">
<g clip-path="url(#clip0_10_2215)">
<path d="M19.1667 19.375V2.25583C19.1667 1.01167 18.1567 0 16.915 0H3.08504C1.84337 0 0.833374 1.01167 0.833374 2.25583V14.4833C0.833374 15.7267 1.84337 16.7392 3.08504 16.7392H14.3034L18.1475 19.8608C18.555 20.1892 19.1667 19.9033 19.1667 19.375ZM17.9167 18.0625C14.8059 15.5983 14.9159 15.4892 14.525 15.4892H3.08504C2.53254 15.4892 2.08337 15.0383 2.08337 14.4833V2.25583C2.08337 1.70083 2.53254 1.25 3.08504 1.25H16.915C17.4675 1.25 17.9167 1.70083 17.9167 2.25583V18.0625Z" fill="white"/>
<path d="M11.6275 4.08C8.18919 4.045 6.02752 3.69167 4.27169 6.4925C3.27336 8.08584 3.06502 10.8367 3.46169 11.7192C3.95086 12.8092 5.09836 13.3933 7.07252 13.5592C7.60669 13.5917 7.72419 13.0958 8.27419 12.5133C9.27169 12.7183 10.7267 12.7183 11.725 12.5133C12.3092 13.1483 12.4125 13.5958 12.9267 13.5592C14.9009 13.3942 16.0492 12.8092 16.5384 11.7192C16.9359 10.835 16.7259 8.08417 15.7284 6.4925C14.0892 3.8775 11.6734 4.075 11.6275 4.08ZM15.3984 11.2075C15.3017 11.4242 15.0159 12.0608 13.1484 12.2808L13.11 12.2342C13.1584 12.1992 14.2192 11.425 14.2625 11.3842C14.8359 10.8542 14.0992 9.95917 13.4684 10.4217C13.4684 10.4217 12.1859 11.4317 10.0009 11.4317C7.70502 11.4317 6.73919 10.5375 6.53336 10.4217C5.90336 9.95834 5.16586 10.8542 5.73919 11.3842C5.78252 11.4242 6.84419 12.1992 6.89169 12.2342L6.85335 12.2808C4.98669 12.0608 4.70086 11.425 4.60336 11.2067C4.42919 10.8075 4.48752 8.50334 5.33252 7.15667C6.02669 6.04917 7.04419 5.33084 8.37419 5.33084C11.5592 5.25917 13.2925 4.95751 14.6709 7.15667C15.5134 8.50334 15.5725 10.8083 15.3984 11.2075Z" fill="white"/>
<path d="M7.96666 7.33667C6.06083 7.33667 6.06166 10.2175 7.96666 10.2175C9.86749 10.2175 9.87416 7.33667 7.96666 7.33667ZM7.82999 8.62917C7.89999 8.54667 8.14916 8.58667 8.14916 8.77667C8.14833 9.15167 7.58249 8.90834 7.82999 8.62917Z" fill="white"/>
<path d="M10.6017 8.77666C10.6017 10.6892 13.4667 10.6983 13.4667 8.7775C13.4659 6.865 10.6017 6.855 10.6017 8.77666ZM11.8975 8.62916C11.9675 8.54666 12.2159 8.55333 12.2159 8.7775C12.2159 9.1525 11.6525 8.90666 11.8975 8.62916Z" fill="white"/>
</g>
<defs>
<clipPath id="clip0_10_2215">
<rect width="20" height="20" fill="white"/>
</clipPath>
</defs>
</svg>
