<svg width="20" height="16" viewBox="0 0 20 16" fill="none" xmlns="http://www.w3.org/2000/svg">
<path d="M18.2422 0.382812H1.75781C0.788555 0.382812 0 1.17137 0 2.14062V13.8594C0 14.8286 0.788555 15.6172 1.75781 15.6172H18.2422C19.2114 15.6172 20 14.8286 20 13.8594V2.14062C20 1.17137 19.2114 0.382812 18.2422 0.382812ZM15.6957 1.55469L10 5.8041L4.3043 1.55469H15.6957ZM1.75781 1.55469H2.34457L9.64961 7.0048C9.75355 7.08234 9.87676 7.12109 10 7.12109C10.1232 7.12109 10.2464 7.08234 10.3504 7.0048L17.6554 1.55469H18.2422C18.565 1.55469 18.8277 1.81715 18.8281 2.13992L10 8.73352L1.17191 2.13992C1.1723 1.81715 1.43496 1.55469 1.75781 1.55469ZM9.64937 9.9343C9.75336 10.012 9.87668 10.0508 10 10.0508C10.1233 10.0508 10.2466 10.012 10.3506 9.9343L16.4844 5.35305V14.4453H3.51562V5.35305L9.64937 9.9343ZM1.17188 13.8594V3.60254L2.34375 4.47781V14.4453H1.75781C1.43473 14.4453 1.17188 14.1825 1.17188 13.8594ZM18.2422 14.4453H17.6562V4.47781L18.8281 3.60254V13.8594C18.8281 14.1825 18.5653 14.4453 18.2422 14.4453Z" fill="white"/>
</svg>
