<svg width="28" height="28" viewBox="0 0 28 28" fill="none" xmlns="http://www.w3.org/2000/svg">
<path fill-rule="evenodd" clip-rule="evenodd" d="M16.7071 0.723854C18.3375 1.27729 19.4527 3.06343 19.0904 4.78289L18.4294 9.0133C18.4042 9.19847 18.4586 9.30057 18.5067 9.35508C18.5625 9.41829 18.6537 9.4667 18.7735 9.4667H24.1068C25.3774 9.4667 26.4971 9.98195 27.1786 10.9068C27.8624 11.8348 28.0129 13.0515 27.5864 14.257L24.4007 23.947C24.1262 25.0007 23.4361 25.8722 22.614 26.4737C21.7828 27.0819 20.7465 27.4667 19.7068 27.4667H14.6402C14.1436 27.4667 13.5512 27.3861 12.9988 27.2282C12.4911 27.0832 11.8921 26.838 11.4516 26.4241L7.36133 23.2574L8.58568 21.676L12.7691 24.9148L12.8139 24.9596C12.9028 25.0485 13.1428 25.1893 13.5482 25.3052C13.9291 25.414 14.3368 25.4667 14.6402 25.4667H19.7068C20.2672 25.4667 20.8975 25.2515 21.433 24.8597C21.9677 24.4684 22.3377 23.9535 22.47 23.4242L22.4788 23.3889L25.6942 13.609L25.6984 13.597C25.9331 12.94 25.8156 12.4286 25.5685 12.0932C25.3166 11.7514 24.8363 11.4667 24.1068 11.4667H18.7735C17.3824 11.4667 16.2284 10.2782 16.4502 8.72528L16.4521 8.71231L17.1237 4.41419L17.1307 4.3831C17.2782 3.71907 16.8067 2.86517 16.0573 2.61538L16.0397 2.60953L16.0224 2.60303C15.7517 2.50154 15.3961 2.50387 15.0319 2.62905C14.661 2.75655 14.3934 2.97296 14.2722 3.15473L14.2701 3.15787L8.80346 11.2912L7.14355 10.1755L12.6081 2.04533C12.6085 2.04474 12.6089 2.04415 12.6093 2.04356C13.0215 1.42624 13.6867 0.97662 14.3818 0.737678C15.0791 0.497966 15.9162 0.43281 16.7071 0.723854Z" fill="white" fill-opacity="0.8"/>
<path fill-rule="evenodd" clip-rule="evenodd" d="M2.48495 8.16817C2.35333 8.28967 2.17334 8.57938 2.17334 9.40003V22.4667C2.17334 23.2873 2.35333 23.5771 2.48495 23.6986C2.63623 23.8382 2.98332 24 3.84001 24H5.17334C6.03003 24 6.37712 23.8382 6.52839 23.6986C6.66001 23.5771 6.84001 23.2873 6.84001 22.4667V9.40003C6.84001 8.57938 6.66001 8.28967 6.52839 8.16817C6.37712 8.02853 6.03003 7.8667 5.17334 7.8667H3.84001C2.98332 7.8667 2.63623 8.02853 2.48495 8.16817ZM1.12839 6.69856C1.84379 6.0382 2.83003 5.8667 3.84001 5.8667H5.17334C6.18332 5.8667 7.16956 6.0382 7.88495 6.69856C8.62 7.37707 8.84001 8.35402 8.84001 9.40003V22.4667C8.84001 23.5127 8.62 24.4897 7.88495 25.1682C7.16956 25.8285 6.18332 26 5.17334 26H3.84001C2.83003 26 1.84379 25.8285 1.12839 25.1682C0.393347 24.4897 0.17334 23.5127 0.17334 22.4667V9.40003C0.17334 8.35402 0.393347 7.37707 1.12839 6.69856Z" fill="white" fill-opacity="0.8"/>
</svg>
