<svg width="20" height="16" viewBox="0 0 20 16" fill="none" xmlns="http://www.w3.org/2000/svg">
<path d="M0.281615 1.68501L2.44578 3.10834V12.1642L0.185782 14.3942C-0.210885 14.7867 0.0682815 15.4642 0.624948 15.4642H5.51578C6.07162 15.4642 6.35245 14.7875 5.95495 14.3942L3.69495 12.1642V5.57084C6.01245 10.5008 8.27162 15.2983 8.21745 15.1892C8.44578 15.6525 9.16828 15.665 9.36412 15.1267L9.36495 15.125C9.36495 15.125 9.36578 15.1242 9.36578 15.1233C9.90745 13.6292 11.0691 10.425 10.9949 10.6283C11.0366 10.5125 13.0125 4.87334 13.0433 4.78584V12.93L11.5924 14.4008C11.2033 14.7958 11.4841 15.465 12.0374 15.465H19.375C19.9266 15.465 20.2083 14.7992 19.8216 14.4033L18.4275 12.9758L18.3716 3.03167L19.8141 1.60834C20.2108 1.21584 19.9316 0.538339 19.375 0.538339C18.79 0.538339 21.4958 0.537506 13.65 0.541673C12.8516 0.565006 13.1216 1.28251 10.3283 8.68501L6.90328 0.910839C6.80328 0.684173 6.57828 0.537506 6.33078 0.537506H0.624948C0.00661485 0.538339 -0.235885 1.34584 0.281615 1.68501ZM2.14745 14.215L3.06995 13.3042L3.99245 14.215H2.14745ZM14.2933 1.78834H17.8525C17.4533 2.23417 17.1183 2.36417 17.12 2.77584L17.1791 13.235C17.1808 13.6317 17.505 13.7708 17.8908 14.2142H13.5325C13.9633 13.725 14.2941 13.5908 14.2941 13.1858V1.78834H14.2933ZM5.92328 1.78834L9.71828 10.4008L8.69662 13.2733C3.54995 2.34334 3.73078 2.17167 2.71245 1.78834H5.92328Z" fill="white"/>
</svg>
