<svg width="81" height="20" viewBox="0 0 81 20" fill="none" xmlns="http://www.w3.org/2000/svg">
<g clip-path="url(#clip0_98_9269)">
<path d="M30.4469 4.40491H25.9832C25.8354 4.40481 25.6925 4.4575 25.5801 4.55347C25.4677 4.64944 25.3933 4.78239 25.3703 4.92836L23.565 16.3744C23.5567 16.4275 23.56 16.4818 23.5747 16.5335C23.5894 16.5852 23.6151 16.6332 23.6501 16.674C23.6851 16.7148 23.7285 16.7475 23.7774 16.77C23.8262 16.7924 23.8794 16.804 23.9331 16.8039H26.0641C26.212 16.804 26.355 16.7512 26.4674 16.6551C26.5798 16.559 26.6541 16.4259 26.677 16.2798L27.1639 13.1926C27.1868 13.0466 27.261 12.9136 27.3732 12.8175C27.4855 12.7214 27.6283 12.6686 27.7761 12.6685H29.1892C32.1295 12.6685 33.8265 11.2457 34.2696 8.42607C34.4693 7.19251 34.2781 6.22328 33.7005 5.54449C33.0661 4.79913 31.9409 4.40491 30.4469 4.40491ZM30.9618 8.58533C30.7177 10.187 29.494 10.187 28.3106 10.187H27.6371L28.1096 7.19577C28.1235 7.10826 28.1681 7.02856 28.2354 6.971C28.3028 6.91345 28.3885 6.88183 28.4771 6.88183H28.7858C29.5919 6.88183 30.3522 6.88183 30.7451 7.34132C30.9795 7.61544 31.0513 8.02272 30.9618 8.58533ZM43.7896 8.53377H41.6521C41.5635 8.53377 41.4778 8.56539 41.4104 8.62294C41.3431 8.68049 41.2985 8.76019 41.2846 8.8477L41.19 9.44556L41.0405 9.22887C40.5778 8.55726 39.5459 8.33274 38.516 8.33274C36.1539 8.33274 34.1365 10.1217 33.7436 12.6313C33.5393 13.8831 33.8297 15.0802 34.5398 15.9149C35.1912 16.6825 36.1232 17.0023 37.2321 17.0023C39.1354 17.0023 40.1907 15.7785 40.1907 15.7785L40.0954 16.3725C40.087 16.4256 40.0901 16.4799 40.1046 16.5317C40.1191 16.5834 40.1447 16.6315 40.1796 16.6724C40.2144 16.7133 40.2577 16.7462 40.3066 16.7688C40.3554 16.7914 40.4085 16.8032 40.4623 16.8032H42.3877C42.5355 16.8033 42.6786 16.7505 42.7909 16.6544C42.9033 16.5583 42.9776 16.4252 43.0005 16.2791L44.1558 8.96323C44.1643 8.91024 44.1612 8.85605 44.1467 8.80438C44.1322 8.75271 44.1067 8.7048 44.0718 8.66397C44.037 8.62313 43.9938 8.59034 43.945 8.56786C43.8963 8.54538 43.8433 8.53375 43.7896 8.53377ZM40.8101 12.694C40.6039 13.9151 39.6347 14.7349 38.3985 14.7349C37.7778 14.7349 37.2817 14.5358 36.9632 14.1586C36.6473 13.7839 36.5272 13.2507 36.6278 12.6567C36.8203 11.446 37.8058 10.5995 39.0231 10.5995C39.6301 10.5995 40.1235 10.8012 40.4485 11.1817C40.7742 11.5661 40.9035 12.1026 40.8101 12.694ZM55.1737 8.53377H53.0257C52.9244 8.53393 52.8247 8.5588 52.7352 8.60623C52.6456 8.65366 52.5691 8.72221 52.512 8.80593L49.5495 13.1698L48.2938 8.97628C48.2552 8.84838 48.1765 8.73629 48.0693 8.65659C47.9621 8.5769 47.8321 8.53383 47.6985 8.53377H45.5877C45.5285 8.53361 45.4701 8.5476 45.4173 8.57459C45.3646 8.60158 45.319 8.64077 45.2845 8.68891C45.25 8.73705 45.2274 8.79275 45.2187 8.85136C45.2101 8.90997 45.2155 8.96981 45.2346 9.02589L47.6006 15.9691L45.3763 19.1091C45.3368 19.1648 45.3133 19.2303 45.3085 19.2984C45.3037 19.3665 45.3178 19.4346 45.3491 19.4953C45.3804 19.556 45.4279 19.6068 45.4862 19.6423C45.5445 19.6778 45.6115 19.6966 45.6798 19.6966H47.8251C47.9253 19.6967 48.024 19.6725 48.1128 19.6262C48.2016 19.5798 48.2778 19.5126 48.3349 19.4303L55.4791 9.11791C55.5178 9.06212 55.5406 8.9968 55.5448 8.92901C55.549 8.86123 55.5346 8.79359 55.5032 8.7334C55.4717 8.67322 55.4244 8.6228 55.3663 8.58761C55.3082 8.55242 55.2416 8.5338 55.1737 8.53377Z" fill="#253B80"/>
<path d="M62.2858 4.40495H57.8215C57.6739 4.40501 57.5311 4.45777 57.4188 4.55373C57.3066 4.64968 57.2323 4.78254 57.2093 4.9284L55.404 16.3745C55.3956 16.4275 55.3988 16.4817 55.4134 16.5334C55.4279 16.585 55.4535 16.6329 55.4884 16.6737C55.5233 16.7146 55.5666 16.7473 55.6153 16.7698C55.6641 16.7923 55.7171 16.8039 55.7708 16.8039H58.0617C58.1651 16.8038 58.265 16.7667 58.3434 16.6995C58.4219 16.6323 58.4739 16.5392 58.4899 16.4371L59.0022 13.1926C59.0251 13.0467 59.0993 12.9137 59.2116 12.8176C59.3238 12.7215 59.4667 12.6686 59.6144 12.6685H61.0268C63.9678 12.6685 65.6641 11.2457 66.1079 8.42612C66.3083 7.19255 66.1158 6.22332 65.5382 5.54453C64.9044 4.79917 63.7798 4.40495 62.2858 4.40495ZM62.8008 8.58537C62.5574 10.187 61.3336 10.187 60.1496 10.187H59.4767L59.9499 7.19581C59.9635 7.1083 60.0079 7.02853 60.0752 6.97094C60.1425 6.91336 60.2282 6.88176 60.3167 6.88187H60.6254C61.4308 6.88187 62.1919 6.88187 62.5848 7.34136C62.8191 7.61549 62.8902 8.02276 62.8008 8.58537ZM75.6279 8.53381H73.4917C73.4031 8.53356 73.3174 8.56511 73.2501 8.62272C73.1828 8.68033 73.1383 8.76018 73.1249 8.84775L73.0303 9.4456L72.8802 9.22891C72.4174 8.5573 71.3862 8.33278 70.3562 8.33278C67.9942 8.33278 65.9774 10.1218 65.5845 12.6313C65.3809 13.8832 65.67 15.0802 66.3801 15.915C67.0328 16.6825 67.9635 17.0023 69.0724 17.0023C70.9756 17.0023 72.031 15.7786 72.031 15.7786L71.9357 16.3725C71.9272 16.4257 71.9304 16.4801 71.945 16.532C71.9596 16.5839 71.9853 16.632 72.0203 16.6729C72.0553 16.7139 72.0988 16.7468 72.1477 16.7693C72.1967 16.7918 72.25 16.8034 72.3038 16.8033H74.2286C74.3764 16.8032 74.5192 16.7503 74.6315 16.6542C74.7437 16.5582 74.8179 16.4251 74.8408 16.2792L75.9967 8.96327C76.0049 8.91012 76.0015 8.85583 75.9867 8.80412C75.972 8.75241 75.9462 8.7045 75.9111 8.6637C75.8761 8.6229 75.8326 8.59017 75.7838 8.56774C75.7349 8.54532 75.6817 8.53375 75.6279 8.53381ZM72.6485 12.694C72.4435 13.9152 71.473 14.7349 70.2368 14.7349C69.6174 14.7349 69.1201 14.5359 68.8016 14.1586C68.4857 13.784 68.3669 13.2507 68.4661 12.6568C68.6599 11.4461 69.6442 10.5995 70.8614 10.5995C71.4684 10.5995 71.9618 10.8012 72.2869 11.1817C72.6139 11.5662 72.7431 12.1027 72.6485 12.694ZM78.1479 4.71889L76.3159 16.3745C76.3075 16.4275 76.3107 16.4817 76.3252 16.5334C76.3398 16.585 76.3654 16.6329 76.4003 16.6737C76.4351 16.7146 76.4784 16.7473 76.5272 16.7698C76.5759 16.7923 76.629 16.8039 76.6827 16.8039H78.5245C78.8306 16.8039 79.0904 16.582 79.1374 16.2798L80.944 4.83441C80.9524 4.78136 80.9492 4.72712 80.9346 4.67542C80.9201 4.62372 80.8945 4.57579 80.8596 4.53492C80.8248 4.49405 80.7815 4.46121 80.7327 4.43866C80.684 4.41612 80.6309 4.40439 80.5772 4.4043H78.5147C78.4262 4.40461 78.3407 4.43644 78.2734 4.49409C78.2062 4.55173 78.1617 4.63142 78.1479 4.71889Z" fill="#179BD7"/>
<path d="M5.0284 19.0282L5.36975 16.86L4.60938 16.8424H0.978516L3.50178 0.843256C3.50929 0.794372 3.53412 0.749814 3.57174 0.717706C3.60936 0.685598 3.65726 0.668077 3.70672 0.668338H9.82887C11.8613 0.668338 13.2639 1.09127 13.9962 1.92605C14.3395 2.31766 14.5582 2.72689 14.6639 3.17724C14.7749 3.64978 14.7768 4.21435 14.6685 4.90293L14.6607 4.95319V5.3944L15.004 5.5889C15.2661 5.72168 15.5016 5.90129 15.6991 6.11887C15.9928 6.4537 16.1827 6.87925 16.263 7.38377C16.3459 7.90265 16.3185 8.52009 16.1827 9.21911C16.0261 10.0232 15.7728 10.7235 15.4308 11.2966C15.1291 11.81 14.7233 12.2546 14.2397 12.6019C13.7854 12.9244 13.2456 13.1691 12.6354 13.3258C12.0441 13.4798 11.3698 13.5575 10.6304 13.5575H10.1539C9.8132 13.5575 9.48229 13.6802 9.22253 13.9001C8.96313 14.1224 8.79105 14.4296 8.73693 14.7669L8.70103 14.962L8.09796 18.7835L8.07054 18.9238C8.06336 18.9682 8.05096 18.9904 8.03269 19.0054C8.01499 19.0199 7.9929 19.0279 7.97003 19.0282H5.0284Z" fill="#253B80"/>
<path d="M15.3292 5.00415C15.3109 5.12098 15.29 5.24042 15.2665 5.36312C14.4591 9.5083 11.697 10.9403 8.16925 10.9403H6.37308C5.94165 10.9403 5.57811 11.2536 5.51089 11.6791L4.59126 17.5115L4.33084 19.1647C4.32047 19.2303 4.32443 19.2973 4.34245 19.3612C4.36047 19.4251 4.39213 19.4844 4.43524 19.5349C4.47835 19.5854 4.53189 19.6259 4.59218 19.6537C4.65246 19.6815 4.71806 19.696 4.78445 19.696H7.97019C8.34744 19.696 8.6679 19.4219 8.7273 19.0498L8.75862 18.888L9.35844 15.0815L9.39695 14.8727C9.45569 14.4994 9.77681 14.2252 10.1541 14.2252H10.6305C13.717 14.2252 16.1333 12.9721 16.8395 9.34578C17.1345 7.83091 16.9817 6.56602 16.2011 5.67641C15.9537 5.40122 15.6582 5.17341 15.3292 5.00415Z" fill="#179BD7"/>
<path d="M14.4844 4.66734C14.2267 4.59277 13.9644 4.53456 13.6993 4.49308C13.1754 4.41256 12.6459 4.37393 12.1159 4.37755H7.31736C7.13475 4.37741 6.9581 4.44261 6.81937 4.56135C6.68063 4.6801 6.58895 4.84456 6.56091 5.02501L5.54011 11.4905L5.51074 11.6791C5.54254 11.4733 5.64696 11.2856 5.8051 11.1501C5.96325 11.0146 6.16467 10.9402 6.37293 10.9403H8.16911C11.6968 10.9403 14.459 9.50762 15.2664 5.3631C15.2905 5.2404 15.3107 5.12096 15.329 5.00413C15.116 4.89241 14.8939 4.79874 14.6652 4.72413C14.6053 4.70423 14.545 4.6853 14.4844 4.66734Z" fill="#222D65"/>
<path d="M6.56094 5.02499C6.58875 4.84449 6.68038 4.67995 6.81919 4.56126C6.958 4.44257 7.13477 4.37761 7.3174 4.37818H12.1159C12.6844 4.37818 13.215 4.41538 13.6993 4.49371C14.027 4.54521 14.3502 4.62224 14.6659 4.7241C14.9042 4.80308 15.1254 4.89641 15.3297 5.0041C15.5699 3.47226 15.3278 2.42928 14.4995 1.48485C13.5864 0.445128 11.9384 0 9.82957 0H3.70743C3.27666 0 2.9092 0.313287 2.84262 0.739487L0.292601 16.9031C0.280723 16.9782 0.285242 17.0549 0.305847 17.128C0.326452 17.2012 0.362653 17.269 0.411961 17.3268C0.461269 17.3846 0.522513 17.431 0.591481 17.4629C0.660449 17.4948 0.735503 17.5113 0.811482 17.5114H4.59115L5.54015 11.4904L6.56094 5.02499Z" fill="#253B80"/>
</g>
<defs>
<clipPath id="clip0_98_9269">
<rect width="80.7143" height="20" fill="white" transform="translate(0.286133)"/>
</clipPath>
</defs>
</svg>
