<svg width="14" height="14" viewBox="0 0 14 14" fill="none" xmlns="http://www.w3.org/2000/svg">
<path d="M6.21086 0.382352C2.99711 0.382352 0.382352 2.99711 0.382352 6.21086C0.382352 9.42479 2.99711 12.0394 6.21086 12.0394C9.42479 12.0394 12.0394 9.42479 12.0394 6.21086C12.0394 2.99711 9.42479 0.382352 6.21086 0.382352ZM6.21086 10.9634C3.59036 10.9634 1.45838 8.83137 1.45838 6.21088C1.45838 3.59039 3.59036 1.45838 6.21086 1.45838C8.83135 1.45838 10.9633 3.59036 10.9633 6.21086C10.9633 8.83135 8.83135 10.9634 6.21086 10.9634Z" fill="white"/>
<path fill-rule="evenodd" clip-rule="evenodd" d="M0.25 6.21086C0.25 2.92401 2.92401 0.25 6.21086 0.25C9.49789 0.25 12.1717 2.92401 12.1717 6.21086C12.1717 9.49788 9.49788 12.1717 6.21086 12.1717C2.92401 12.1717 0.25 9.49789 0.25 6.21086ZM1.59074 6.21088C1.59074 8.75828 3.66346 10.831 6.21086 10.831C8.75825 10.831 10.831 8.75825 10.831 6.21086C10.831 3.66346 8.75825 1.59074 6.21086 1.59074C3.66346 1.59074 1.59074 3.66348 1.59074 6.21088ZM0.382352 6.21086C0.382352 2.99711 2.99711 0.382352 6.21086 0.382352C9.42479 0.382352 12.0394 2.99711 12.0394 6.21086C12.0394 9.42479 9.42479 12.0394 6.21086 12.0394C2.99711 12.0394 0.382352 9.42479 0.382352 6.21086ZM1.45838 6.21088C1.45838 8.83137 3.59036 10.9634 6.21086 10.9634C8.83135 10.9634 10.9633 8.83135 10.9633 6.21086C10.9633 3.59036 8.83135 1.45838 6.21086 1.45838C3.59036 1.45838 1.45838 3.59039 1.45838 6.21088Z" fill="white"/>
<path d="M13.46 12.6991L10.3754 9.61451C10.1652 9.40433 9.8248 9.40433 9.61461 9.61451C9.40443 9.82452 9.40443 10.1653 9.61461 10.3753L12.6992 13.4599C12.8043 13.565 12.9419 13.6175 13.0796 13.6175C13.2172 13.6175 13.3549 13.565 13.46 13.4599C13.6702 13.2499 13.6702 12.9091 13.46 12.6991Z" fill="white"/>
<path fill-rule="evenodd" clip-rule="evenodd" d="M10.469 9.52093L13.5536 12.6055C13.8155 12.8672 13.8155 13.2918 13.5536 13.5535M10.469 9.52093C10.2071 9.25907 9.78294 9.25905 9.52107 9.52088L10.469 9.52093ZM9.52107 9.52088C9.52107 9.52088 9.52106 9.52089 9.52107 9.52088C9.25919 9.78258 9.25915 10.2072 9.52103 10.4689C9.52101 10.4689 9.52104 10.4689 9.52103 10.4689L12.6057 13.5535C12.7365 13.6844 12.9082 13.7499 13.0796 13.7499C13.2509 13.7499 13.4227 13.6844 13.5536 13.5535M10.3754 9.61451L13.46 12.6991C13.6702 12.9091 13.6702 13.2499 13.46 13.4599C13.3549 13.565 13.2172 13.6175 13.0796 13.6175C12.9419 13.6175 12.8043 13.565 12.6992 13.4599L9.61461 10.3753C9.40443 10.1653 9.40443 9.82452 9.61461 9.61451C9.8248 9.40433 10.1652 9.40433 10.3754 9.61451Z" fill="white"/>
</svg>
