<svg width="16" height="16" viewBox="0 0 16 16" fill="none" xmlns="http://www.w3.org/2000/svg">
<path d="M6.89991 0.647081C3.32907 0.647081 0.423791 3.55236 0.423791 7.1232C0.423791 10.6942 3.32907 13.5993 6.89991 13.5993C10.4709 13.5993 13.376 10.6942 13.376 7.1232C13.376 3.55236 10.4709 0.647081 6.89991 0.647081ZM6.89991 12.4037C3.98825 12.4037 1.61938 10.0349 1.61938 7.12323C1.61938 4.21157 3.98825 1.84267 6.89991 1.84267C9.81157 1.84267 12.1804 4.21154 12.1804 7.1232C12.1804 10.0349 9.81157 12.4037 6.89991 12.4037Z" fill="#212121"/>
<path fill-rule="evenodd" clip-rule="evenodd" d="M0.276733 7.1232C0.276733 3.47115 3.24786 0.500023 6.89991 0.500023C10.5522 0.500023 13.5231 3.47115 13.5231 7.1232C13.5231 10.7754 10.5522 13.7464 6.89991 13.7464C3.24786 13.7464 0.276733 10.7755 0.276733 7.1232ZM1.76644 7.12323C1.76644 9.95367 4.06947 12.2567 6.89991 12.2567C9.73035 12.2567 12.0334 9.95364 12.0334 7.1232C12.0334 4.29276 9.73035 1.98973 6.89991 1.98973C4.06947 1.98973 1.76644 4.29278 1.76644 7.12323ZM0.423791 7.1232C0.423791 3.55236 3.32907 0.647081 6.89991 0.647081C10.4709 0.647081 13.376 3.55236 13.376 7.1232C13.376 10.6942 10.4709 13.5993 6.89991 13.5993C3.32907 13.5993 0.423791 10.6942 0.423791 7.1232ZM1.61938 7.12323C1.61938 10.0349 3.98825 12.4037 6.89991 12.4037C9.81157 12.4037 12.1804 10.0349 12.1804 7.1232C12.1804 4.21154 9.81157 1.84267 6.89991 1.84267C3.98825 1.84267 1.61938 4.21157 1.61938 7.12323Z" fill="#212121"/>
<path d="M14.9545 14.3324L11.5272 10.905C11.2936 10.6715 10.9154 10.6715 10.6819 10.905C10.4483 11.1384 10.4483 11.517 10.6819 11.7503L14.1092 15.1777C14.226 15.2945 14.3788 15.3528 14.5319 15.3528C14.6847 15.3528 14.8377 15.2945 14.9545 15.1777C15.1881 14.9444 15.1881 14.5657 14.9545 14.3324Z" fill="#212121"/>
<path fill-rule="evenodd" clip-rule="evenodd" d="M11.6311 10.8011L15.0585 14.2284C15.3495 14.5191 15.3495 14.9909 15.0585 15.2817M11.6311 10.8011C11.3402 10.5101 10.8689 10.5101 10.5779 10.801L11.6311 10.8011ZM10.5779 10.801C10.5779 10.801 10.5779 10.801 10.5779 10.801C10.2869 11.0918 10.2869 11.5635 10.5779 11.8543C10.5779 11.8543 10.5779 11.8543 10.5779 11.8543L14.0052 15.2817C14.1506 15.4271 14.3414 15.4999 14.5319 15.4999C14.7221 15.4999 14.9131 15.4271 15.0585 15.2817M11.5272 10.905L14.9545 14.3324C15.1881 14.5657 15.1881 14.9444 14.9545 15.1777C14.8377 15.2945 14.6847 15.3528 14.5319 15.3528C14.3788 15.3528 14.226 15.2945 14.1092 15.1777L10.6819 11.7503C10.4483 11.517 10.4483 11.1384 10.6819 10.905C10.9154 10.6715 11.2936 10.6715 11.5272 10.905Z" fill="#212121"/>
</svg>
