<svg width="24" height="20" viewBox="0 0 24 20" fill="none" xmlns="http://www.w3.org/2000/svg">
<path d="M23.8458 6.69156L20.4921 2.38744C19.6766 1.34089 18.448 0.740723 17.1213 0.740723H14.9092C14.6026 0.740723 14.3287 0.932258 14.2234 1.22029C13.8837 2.14969 12.9901 2.77417 12 2.77417C11.0099 2.77417 10.1165 2.14969 9.7766 1.22029C9.67134 0.932258 9.39739 0.740723 9.09079 0.740723H6.87864C5.55198 0.740723 4.32327 1.34089 3.50779 2.38755L0.154255 6.69156C0.00851763 6.87861 -0.037384 7.1247 0.0312598 7.35171C0.0999037 7.57871 0.274434 7.75825 0.499457 7.83316L5.14783 9.38181V18.529C5.14783 18.9323 5.47478 19.2592 5.87809 19.2592H18.1219C18.5252 19.2592 18.8522 18.9323 18.8522 18.529V9.38181L23.5006 7.83316C23.7256 7.75825 23.9001 7.57871 23.9688 7.35171C24.0374 7.1247 23.9915 6.87861 23.8458 6.69156ZM18.8522 7.84244V6.76897C18.8522 6.36566 18.5252 6.03871 18.1219 6.03871C17.7186 6.03871 17.3917 6.36566 17.3917 6.76897V17.7987H6.60824V6.76897C6.60824 6.36566 6.28129 6.03871 5.87798 6.03871C5.47468 6.03871 5.14773 6.36566 5.14773 6.76897V7.84244L1.94129 6.77418L4.65982 3.28524C5.19666 2.5963 6.00526 2.20123 6.87864 2.20123H8.61883C9.27554 3.43557 10.576 4.23457 11.9999 4.23457C13.4238 4.23457 14.7243 3.43546 15.3811 2.20123H17.1213C17.9946 2.20123 18.8033 2.5963 19.3401 3.28513L22.0587 6.77418L18.8522 7.84244Z" fill="white"/>
</svg>
