<svg width="60" height="18" viewBox="0 0 60 18" fill="none" xmlns="http://www.w3.org/2000/svg">
<path d="M53.7999 11.3534L50.336 3.78491H47.4609L52.4094 13.997L52.3203 14.3045C52.1964 14.7132 51.9347 15.0662 51.5801 15.3032C51.2254 15.5402 50.7997 15.6465 50.3756 15.6039C49.8791 15.5993 49.392 15.4679 48.9603 15.222L48.5001 17.4093C49.1642 17.6836 49.875 17.8267 50.5933 17.8308C52.5727 17.8308 53.7702 17.1017 54.7598 14.9542L60.0002 3.78491H57.2242L53.7999 11.3534Z" fill="white"/>
<path d="M29.3191 0.179199H21.0156V14.0912H23.7373V8.97773H29.3191C32.3524 8.97773 34.3467 7.44518 34.3467 4.57847C34.3467 1.71175 32.3524 0.179199 29.3191 0.179199ZM29.1706 6.54251H23.7274V2.57474H29.1706C30.7442 2.57474 31.6448 3.2939 31.6448 4.55863C31.6448 5.82336 30.7442 6.54251 29.1706 6.54251Z" fill="white"/>
<path d="M45.7249 11.4526V7.26162C45.7249 4.78176 43.9485 3.49719 40.9002 3.49719C38.426 3.49719 36.2586 4.65281 35.65 6.42838L37.8867 7.22194C38.2182 6.33415 39.3712 5.67947 40.8062 5.67947C42.5085 5.67947 43.226 6.37383 43.226 7.22194V7.49472L39.1782 7.9411C36.8475 8.18908 35.3135 9.23558 35.3135 11.1054C35.3135 13.1538 37.0702 14.2548 39.4009 14.2548C40.9032 14.3017 42.3662 13.7692 43.4883 12.7669C43.894 13.7588 44.3097 14.4234 47.0759 14.0713V11.9981C45.9674 12.266 45.7249 11.9981 45.7249 11.4526ZM43.2507 10.1234C43.2507 11.4724 41.3654 12.1866 39.7868 12.1866C38.5844 12.1866 37.8619 11.7998 37.8619 11.031C37.8619 10.2622 38.4557 9.9845 39.6038 9.85058L43.2606 9.42405L43.2507 10.1234Z" fill="white"/>
<path d="M15.8678 10.8277C15.8871 10.8856 15.8871 10.9483 15.8678 11.0062C15.8566 11.064 15.8292 11.1174 15.7886 11.16L13.1709 13.9126C13.1132 13.9721 13.0442 14.0193 12.968 14.0515C12.8916 14.0851 12.809 14.102 12.7256 14.1011H0.309983C0.252484 14.1016 0.195969 14.0862 0.146685 14.0565C0.0974336 14.0229 0.0581183 13.9766 0.0328714 13.9226C0.015435 13.8677 0.015435 13.8088 0.0328714 13.7539C0.0431328 13.6968 0.0688042 13.6437 0.107097 13.6002L2.72976 10.8475C2.78744 10.7881 2.85643 10.7409 2.93264 10.7087C3.00891 10.6747 3.09166 10.6577 3.17512 10.6591H15.5709C15.6307 10.6579 15.6895 10.6752 15.7391 10.7087C15.7948 10.7317 15.8405 10.7739 15.8678 10.8277ZM13.1759 5.60015C13.1169 5.54228 13.0482 5.49527 12.973 5.46128C12.8958 5.43008 12.8137 5.41328 12.7305 5.41168H0.309983C0.251765 5.41254 0.194951 5.42972 0.145975 5.46127C0.0969987 5.49283 0.057818 5.5375 0.0328714 5.59023C0.0157557 5.64513 0.0157557 5.70396 0.0328714 5.75886C0.0412052 5.81656 0.0671307 5.87026 0.107097 5.91261L2.72976 8.67021C2.78873 8.72809 2.8574 8.7751 2.93264 8.80909C3.00965 8.84072 3.0919 8.85755 3.17512 8.85868H15.5709C15.6307 8.85982 15.6895 8.84251 15.7391 8.80909C15.7891 8.77987 15.8275 8.73435 15.848 8.68013C15.8734 8.62737 15.8818 8.56801 15.872 8.51025C15.8623 8.4525 15.8349 8.39922 15.7936 8.35775L13.1759 5.60015ZM0.146685 3.56667C0.195969 3.59636 0.252484 3.6118 0.309983 3.6113H12.7305C12.8139 3.61217 12.8966 3.59527 12.973 3.56171C13.0492 3.52948 13.1182 3.48226 13.1759 3.42284L15.7936 0.670194C15.8341 0.627595 15.8616 0.574232 15.8728 0.516443C15.8899 0.461542 15.8899 0.402714 15.8728 0.347813C15.8523 0.293595 15.8139 0.248071 15.7639 0.21886C15.7142 0.185437 15.6555 0.168123 15.5956 0.169263H3.15532C3.07186 0.167928 2.98912 0.184854 2.91285 0.21886C2.83664 0.251088 2.76765 0.298311 2.70997 0.357732L0.0922528 3.12029C0.0507444 3.16218 0.0231013 3.21586 0.0130773 3.27404C-0.00435908 3.3289 -0.00435908 3.38782 0.0130773 3.44267C0.0451946 3.49569 0.0914761 3.53864 0.146685 3.56667Z" fill="url(#paint0_linear_2166_3263)"/>
<defs>
<linearGradient id="paint0_linear_2166_3263" x1="1.34093" y1="14.4332" x2="14.0922" y2="-0.22562" gradientUnits="userSpaceOnUse">
<stop offset="0.08" stop-color="#9945FF"/>
<stop offset="0.3" stop-color="#8752F3"/>
<stop offset="0.5" stop-color="#5497D5"/>
<stop offset="0.6" stop-color="#43B4CA"/>
<stop offset="0.72" stop-color="#28E0B9"/>
<stop offset="0.97" stop-color="#19FB9B"/>
</linearGradient>
</defs>
</svg>
