<svg width="14" height="13" viewBox="0 0 14 13" fill="none" xmlns="http://www.w3.org/2000/svg">
<path d="M13.1394 4.45001L9.17222 3.87344L7.39878 0.278131C7.35035 0.179693 7.27066 0.100006 7.17222 0.0515683C6.92535 -0.0703067 6.62535 0.0312558 6.50191 0.278131L4.72847 3.87344L0.761284 4.45001C0.651909 4.46563 0.551909 4.51719 0.475347 4.59532C0.382787 4.69045 0.331782 4.81844 0.33354 4.95116C0.335298 5.08389 0.389675 5.21048 0.484722 5.30313L3.35503 8.10157L2.67691 12.0531C2.66101 12.1451 2.67118 12.2396 2.70627 12.326C2.74136 12.4125 2.79997 12.4873 2.87545 12.5422C2.95093 12.597 3.04026 12.6295 3.13331 12.6362C3.22637 12.6428 3.31941 12.6232 3.40191 12.5797L6.95035 10.7141L10.4988 12.5797C10.5957 12.6313 10.7082 12.6484 10.816 12.6297C11.0878 12.5828 11.2707 12.325 11.2238 12.0531L10.5457 8.10157L13.416 5.30313C13.4941 5.22657 13.5457 5.12657 13.5613 5.01719C13.6035 4.74376 13.4128 4.49063 13.1394 4.45001ZM9.33785 7.70782L9.90191 10.9938L6.95035 9.44376L3.99878 10.9953L4.56285 7.70938L2.17535 5.38126L5.47535 4.90157L6.95035 1.91251L8.42535 4.90157L11.7253 5.38126L9.33785 7.70782Z" fill="#FD7E14"/>
</svg>
