<svg width="16" height="18" viewBox="0 0 16 18" fill="none" xmlns="http://www.w3.org/2000/svg">
<path d="M15.2135 3.36851H11.2747V2.61981C11.2747 1.54286 10.3986 0.666687 9.32162 0.666687H7.04297C5.96602 0.666687 5.08984 1.54286 5.08984 2.61981V3.36851H1.15104C0.791471 3.36851 0.5 3.65998 0.5 4.01955C0.5 4.37912 0.791471 4.67059 1.15104 4.67059H1.82526L2.61869 14.9566C2.61891 14.9596 2.61917 14.9627 2.61943 14.9657C2.67855 15.6142 2.97601 16.2133 3.457 16.6524C3.93799 17.0915 4.56156 17.3334 5.21283 17.3334H11.1518C12.5081 17.3334 13.623 16.3232 13.7452 14.9836C13.7778 14.6255 13.514 14.3088 13.1559 14.2762C12.7975 14.2435 12.4811 14.5073 12.4484 14.8654C12.3879 15.5301 11.8304 16.0313 11.1518 16.0313H5.21283C4.53649 16.0313 3.97992 15.5244 3.9165 14.8515L3.13122 4.67059H13.2334L12.6773 11.8796C12.6497 12.2381 12.9179 12.5512 13.2764 12.5788C13.2934 12.5801 13.3103 12.5808 13.3271 12.5808C13.664 12.5808 13.9492 12.3212 13.9756 11.9798L14.5393 4.67059H15.2135C15.5731 4.67059 15.8646 4.37912 15.8646 4.01955C15.8646 3.65998 15.5731 3.36851 15.2135 3.36851ZM9.97266 3.36851H6.39193V2.61981C6.39193 2.26083 6.68398 1.96877 7.04297 1.96877H9.32162C9.6806 1.96877 9.97266 2.26083 9.97266 2.61981V3.36851Z" fill="white"/>
<path d="M5.2242 5.97332C4.86499 5.98901 4.5865 6.29292 4.60219 6.65216L4.92772 14.1044C4.94298 14.454 5.23117 14.7271 5.57765 14.7271C5.58722 14.7271 5.59689 14.7269 5.60656 14.7264C5.96577 14.7107 6.24425 14.4068 6.22856 14.0476L5.90304 6.5953C5.88735 6.23612 5.58286 5.95718 5.2242 5.97332Z" fill="white"/>
<path d="M10.4619 6.59529L10.1364 14.0476C10.1207 14.4068 10.3992 14.7107 10.7584 14.7264C10.768 14.7268 10.7777 14.7271 10.7873 14.7271C11.1337 14.7271 11.422 14.4539 11.4372 14.1044L11.7627 6.65216C11.7784 6.29294 11.4999 5.98901 11.1407 5.97332C10.7821 5.95727 10.4776 6.23608 10.4619 6.59529Z" fill="white"/>
<path d="M7.53125 6.6237V14.0759C7.53125 14.4355 7.82272 14.727 8.18229 14.727C8.54186 14.727 8.83333 14.4355 8.83333 14.0759V6.6237C8.83333 6.26413 8.54186 5.97266 8.18229 5.97266C7.82272 5.97266 7.53125 6.26413 7.53125 6.6237Z" fill="white"/>
<path fill-rule="evenodd" clip-rule="evenodd" d="M13.3352 10.8358C13.6986 10.8231 14.0035 11.1074 14.0161 11.4707C14.0271 11.786 13.9976 12.5472 13.9473 13.2813C13.9218 13.6541 13.8901 14.0322 13.8535 14.3575C13.8188 14.6671 13.775 14.9755 13.7163 15.1809C13.6164 15.5304 13.252 15.7329 12.9024 15.6329C12.5528 15.533 12.3504 15.1686 12.4503 14.819C12.475 14.7327 12.5096 14.5264 12.5451 14.2107C12.5788 13.9106 12.609 13.5528 12.6338 13.1913C12.6841 12.4569 12.7087 11.7567 12.7003 11.5167C12.6876 11.1533 12.9719 10.8485 13.3352 10.8358Z" fill="white"/>
</svg>
