<svg width="31" height="31" viewBox="0 0 31 31" fill="none" xmlns="http://www.w3.org/2000/svg">
<path fill-rule="evenodd" clip-rule="evenodd" d="M9.25057 2.31461C9.39722 1.92484 9.77007 1.66675 10.1865 1.66675H19.9998C20.5521 1.66675 20.9998 2.11446 20.9998 2.66675V16.0001C20.9998 18.019 19.3521 19.6667 17.3332 19.6667H2.6665C2.11422 19.6667 1.6665 19.219 1.6665 18.6667V10.1601C1.6665 9.73967 1.92944 9.36416 2.32449 9.22038C2.71954 9.0766 3.16233 9.19525 3.43256 9.5173C4.21391 10.4485 5.41835 11.0329 6.76235 11.0004L6.76674 11.0003V11.0003C7.86227 10.9786 8.83621 10.5578 9.56219 9.86388C9.57784 9.84892 9.59397 9.83447 9.61056 9.82056C9.91777 9.5629 10.19 9.22272 10.4057 8.83443L10.4187 8.81181C10.8068 8.15408 11.0217 7.37858 11.0002 6.57337L11.0002 6.57234C10.9676 5.30126 10.405 4.18804 9.52736 3.41875C9.21419 3.14424 9.10393 2.70439 9.25057 2.31461ZM12.2437 3.66675C12.7022 4.5158 12.9728 5.48427 12.9995 6.52046C13.0311 7.7105 12.7153 8.85066 12.1477 9.8171C11.836 10.3753 11.4254 10.9027 10.9209 11.3317C9.83665 12.3573 8.39411 12.9679 6.8085 12.9998C5.67244 13.0269 4.59688 12.7514 3.6665 12.2451V17.6667H17.3332C18.2476 17.6667 18.9998 16.9145 18.9998 16.0001V3.66675H12.2437Z" fill="white" fill-opacity="0.8"/>
<path fill-rule="evenodd" clip-rule="evenodd" d="M18.9998 6.66675C18.9998 6.11446 19.4476 5.66675 19.9998 5.66675H22.4532C23.7783 5.66675 24.9835 6.38408 25.638 7.51129L25.6413 7.51697L25.6413 7.51698L27.9212 11.5036C28.0982 11.8131 28.097 12.1935 27.9181 12.5019C27.7392 12.8103 27.4097 13.0001 27.0531 13.0001H25.3332C25.1521 13.0001 24.9998 13.1524 24.9998 13.3334V17.3334C24.9998 17.5145 25.1521 17.6667 25.3332 17.6667H29.3332C29.8855 17.6667 30.3332 18.1145 30.3332 18.6667V22.6667C30.3332 25.4324 28.0988 27.6667 25.3332 27.6667H23.9998C23.4476 27.6667 22.9998 27.219 22.9998 26.6667C22.9998 25.7524 22.2476 25.0001 21.3332 25.0001C20.4188 25.0001 19.6665 25.7524 19.6665 26.6667C19.6665 27.219 19.2188 27.6667 18.6665 27.6667H13.3332C12.7809 27.6667 12.3332 27.219 12.3332 26.6667C12.3332 25.7524 11.5809 25.0001 10.6665 25.0001C9.75212 25.0001 8.99984 25.7524 8.99984 26.6667C8.99984 27.219 8.55212 27.6667 7.99984 27.6667H6.6665C3.90089 27.6667 1.6665 25.4324 1.6665 22.6667V18.6667C1.6665 18.1145 2.11422 17.6667 2.6665 17.6667H17.3332C18.2476 17.6667 18.9998 16.9145 18.9998 16.0001V6.66675ZM20.9998 7.66675V16.0001C20.9998 18.019 19.3521 19.6667 17.3332 19.6667H3.6665V22.6667C3.6665 24.3278 5.00546 25.6667 6.6665 25.6667H7.13891C7.5762 24.1309 8.99396 23.0001 10.6665 23.0001C12.339 23.0001 13.7568 24.1309 14.1941 25.6667H17.8056C18.2429 24.1309 19.6606 23.0001 21.3332 23.0001C23.0057 23.0001 24.4235 24.1309 24.8608 25.6667H25.3332C26.9942 25.6667 28.3332 24.3278 28.3332 22.6667V19.6667H25.3332C24.0476 19.6667 22.9998 18.619 22.9998 17.3334V13.3334C22.9998 12.0491 24.0454 11.0022 25.3293 11.0001L23.9084 8.51556C23.9079 8.51473 23.9074 8.5139 23.907 8.51308C23.6012 7.98843 23.0471 7.66675 22.4532 7.66675H20.9998Z" fill="white" fill-opacity="0.8"/>
<path fill-rule="evenodd" clip-rule="evenodd" d="M10.6667 25C9.74619 25 9 25.7462 9 26.6667C9 27.5871 9.74619 28.3333 10.6667 28.3333C11.5871 28.3333 12.3333 27.5871 12.3333 26.6667C12.3333 25.7462 11.5871 25 10.6667 25ZM7 26.6667C7 24.6416 8.64162 23 10.6667 23C12.6917 23 14.3333 24.6416 14.3333 26.6667C14.3333 28.6917 12.6917 30.3333 10.6667 30.3333C8.64162 30.3333 7 28.6917 7 26.6667Z" fill="white" fill-opacity="0.8"/>
<path fill-rule="evenodd" clip-rule="evenodd" d="M21.3332 25C20.4127 25 19.6665 25.7462 19.6665 26.6667C19.6665 27.5871 20.4127 28.3333 21.3332 28.3333C22.2536 28.3333 22.9998 27.5871 22.9998 26.6667C22.9998 25.7462 22.2536 25 21.3332 25ZM17.6665 26.6667C17.6665 24.6416 19.3081 23 21.3332 23C23.3582 23 24.9998 24.6416 24.9998 26.6667C24.9998 28.6917 23.3582 30.3333 21.3332 30.3333C19.3081 30.3333 17.6665 28.6917 17.6665 26.6667Z" fill="white" fill-opacity="0.8"/>
<path fill-rule="evenodd" clip-rule="evenodd" d="M25.3333 13C25.1523 13 25 13.1523 25 13.3333V17.3333C25 17.5144 25.1523 17.6667 25.3333 17.6667H28.3333V16.265L26.4723 13H25.3333ZM23 13.3333C23 12.0477 24.0477 11 25.3333 11H27.0533C27.4125 11 27.7442 11.1927 27.9221 11.5048L30.2021 15.5048C30.2881 15.6557 30.3333 15.8263 30.3333 16V18.6667C30.3333 19.219 29.8856 19.6667 29.3333 19.6667H25.3333C24.0477 19.6667 23 18.619 23 17.3333V13.3333Z" fill="white" fill-opacity="0.8"/>
<path fill-rule="evenodd" clip-rule="evenodd" d="M9.52207 3.41414C8.7459 2.72422 7.70886 2.31172 6.56654 2.3332C5.55434 2.35499 4.62234 2.73102 3.87769 3.34347C2.90638 4.15403 2.30072 5.39762 2.33276 6.76156C2.35485 7.58041 2.59413 8.33025 3.0073 8.95531L3.01269 8.96346L3.01265 8.96349C3.14711 9.17129 3.26993 9.3411 3.39747 9.47774C3.40948 9.49061 3.42115 9.5038 3.43246 9.51728C4.21382 10.4485 5.41826 11.0329 6.76226 11.0004L6.76665 11.0003C7.86217 10.9786 8.83611 10.5578 9.5621 9.86386C9.57775 9.84891 9.59388 9.83446 9.61047 9.82055C9.91767 9.56289 10.1899 9.22271 10.4056 8.83441L10.4186 8.8118C10.8067 8.15407 11.0216 7.37856 11.0001 6.57336L11.0001 6.57233C10.9675 5.30124 10.4049 4.18803 9.52727 3.41874L9.52205 3.41416L9.52207 3.41414ZM10.8482 1.917C9.70489 0.901895 8.1833 0.30204 6.52733 0.333583L6.5251 0.333628C5.03208 0.365394 3.67207 0.921894 2.60403 1.80146L2.60402 1.80145L2.59955 1.80517C1.1725 2.99438 0.285873 4.8161 0.33336 6.81057L0.333432 6.81343C0.364868 7.99228 0.711262 9.10699 1.33612 10.054C1.49054 10.2924 1.681 10.5662 1.91691 10.8225C3.08207 12.1992 4.85589 13.0464 6.80841 12.9998C8.39401 12.9679 9.83656 12.3573 10.9208 11.3317C11.4253 10.9027 11.8359 10.3753 12.1476 9.8171C12.7152 8.85067 13.0311 7.71049 12.9994 6.52045C12.9994 6.52065 12.9994 6.52086 12.9994 6.52107L11.9997 6.5467L12.9994 6.52004C12.9994 6.52018 12.9994 6.52031 12.9994 6.52045C12.9519 4.67303 12.1289 3.04084 10.8482 1.917Z" fill="white" fill-opacity="0.8"/>
<path fill-rule="evenodd" clip-rule="evenodd" d="M9.43877 4.59836C9.82259 4.99548 9.81181 5.62855 9.4147 6.01237L6.62808 8.70573C6.24283 9.07809 5.63255 9.08065 5.24419 8.71153L3.89751 7.43158C3.49719 7.0511 3.48111 6.41814 3.86159 6.01783C4.24207 5.61751 4.87503 5.60143 5.27535 5.98191L5.9273 6.60156L8.02476 4.5743C8.42187 4.19048 9.05494 4.20125 9.43877 4.59836Z" fill="white" fill-opacity="0.8"/>
</svg>
