<svg width="20" height="18" viewBox="0 0 20 18" fill="none" xmlns="http://www.w3.org/2000/svg">
<path d="M20 2.75C19.25 3.125 18.5 3.25 17.625 3.375C18.5 2.875 19.125 2.125 19.375 1.125C18.625 1.625 17.75 1.875 16.75 2.125C16 1.375 14.875 0.875 13.75 0.875C11.625 0.875 9.75 2.75 9.75 5C9.75 5.375 9.75 5.625 9.875 5.875C6.5 5.75 3.375 4.125 1.375 1.625C1 2.25 0.875 2.875 0.875 3.75C0.875 5.125 1.625 6.375 2.75 7.125C2.125 7.125 1.5 6.875 0.875 6.625C0.875 8.625 2.25 10.25 4.125 10.625C3.75 10.75 3.375 10.75 3 10.75C2.75 10.75 2.5 10.75 2.25 10.625C2.75 12.25 4.25 13.5 6.125 13.5C4.75 14.625 3 15.25 1 15.25H0C1.875 16.375 4 17.125 6.25 17.125C13.75 17.125 17.875 10.875 17.875 5.5V5C18.75 4.375 19.5 3.625 20 2.75Z" fill="white"/>
</svg>
